<svg xmlns="http://www.w3.org/2000/svg" width="189" height="530"><rect id="backgroundrect" width="100%" height="100%" x="0" y="0" fill="none" stroke="none"/><g class="currentLayer" style=""><title>Layer 1</title><g fill="none" id="svg_1" class="selected"><path fill="#5EBA7D" d="M48.689655125141144,269.76548290252686 v7.599999904632568 l8.5,7.599999904632568 L73.68965512514114,270.16550731658936 V261.9654951095581 l-16.5,14.899999618530273 M22.689655125141144,312.9654951095581 v3 l4,4 l7,-6 v-4 l-7,6 " id="svg_2"/><path fill="#C9CBCF" d="M8.689655125141144,269.76548290252686 v7.599999904632568 l8.600000381469727,7.599999904632568 L33.689655125141144,270.16550731658936 V261.9654951095581 l-16.399999618530273,14.899999618530273 " id="svg_3"/><path fill="#F48024" d="M45.689655125141144,179.96552562713623 h29 l-14.399999618530273,-15 " id="svg_4"/><path fill="#C9CBCF" d="M5.689655125141144,179.96552562713623 h29 l-14.5,-15 " id="svg_5"/><path fill="#F48024" d="M60.28965359926224,231.96552562713623 L74.68965512514114,216.96552562713623 H45.689655125141144 M7.189655125141144,311.4654951095581 L0.6896551251411438,317.9654951095581 h13 " id="svg_6"/><path fill="#C9CBCF" d="M8.189655125141144,375.4654951095581 L0.6896551251411438,368.9654951095581 v13 m55,80.5 l-8,-6.5 v13 m-40.5,-6.5 L14.689655125141144,468.9654951095581 v-13 m12.5,-77.5 L33.689655125141144,371.9654951095581 H20.689655125141144 " id="svg_7"/><path fill="#C9CBCF" d="M7.189655125141144,330.4654951095581 L0.6896551251411438,336.9654951095581 h13 " id="svg_8"/><path fill="#C9CBCF" d="M20.189655125141144,231.96552562713623 L34.689655125141144,216.96552562713623 H5.689655125141144 " id="svg_9"/><path fill="#C9CBCF" d="M20.189655125141144,108.96552562713623 l2.9000000953674316,9.199999809265137 H32.689655125141144 l-7.699999809265137,5.599999904632568 l3,9.199999809265137 l-7.800000190734863,-5.699999809265137 l-7.800000190734863,5.699999809265137 l3,-9.199999809265137 l-7.699999809265137,-5.599999904632568 h9.600000381469727 " id="svg_10"/><path fill="#FFD83D" d="M60.28965359926224,108.96552562713623 l2.9000000953674316,9.199999809265137 h9.600000381469727 l-7.699999809265137,5.599999904632568 l3,9.199999809265137 l-7.800000190734863,-5.699999809265137 l-7.800000190734863,5.699999809265137 l3,-9.199999809265137 l-7.699999809265137,-5.599999904632568 h9.600000381469727 " id="svg_11"/><path fill="#EAC328" d="M60.28965359926224,112.26552867889404 l2.200000047683716,6.900000095367432 H69.68965512514114 l-5.800000190734863,4.199999809265137 l2.299999952316284,6.900000095367432 l-5.900000095367432,-4.300000190734863 l-5.900000095367432,4.300000190734863 l2.299999952316284,-6.900000095367432 l-5.800000190734863,-4.199999809265137 h7.300000190734863 l2.0999999046325684,-6.900000095367432 zm0,-3.299999952316284 l-2.9000000953674316,9.199999809265137 h-9.600000381469727 l7.699999809265137,5.599999904632568 l-3,9.199999809265137 l7.800000190734863,-5.699999809265137 l7.800000190734863,5.699999809265137 l-3,-9.199999809265137 l7.699999809265137,-5.599999904632568 h-9.600000381469727 l-2.9000000953674316,-9.199999809265137 z" id="svg_12"/><circle cx="65.68965512514114" cy="393.96550673246384" r="3" fill="#D1A684" id="svg_13"/><circle cx="85.68965512514114" cy="393.96550673246384" r="3" fill="#B4B8BC" id="svg_14"/><circle cx="105.68965512514114" cy="393.96550673246384" r="3" fill="#FFCC01" id="svg_15"/><path fill="#93999F" d="M47.689655125141144,355.9654951095581 h2 v2 h-2 m3,1 h2 v2 h-2 m6,-2 h2 v2 h-2 m6,-2 h2 v2 h-2 m6,-2 h2 v2 h-2 m-15,-5 h2 v2 h-2 m6,-2 h2 v2 h-2 m6,-2 h2 v2 h-2 m6,-2 h2 v2 h-2 " id="svg_16"/><path fill="#C9CBCF" d="M0.6896551251411438,388.9654951095581 v31 h31 v-31 " id="svg_17"/><path fill="#FFF" d="M20.689655125141144,407.9654951095581 a14.09000015258789,14.09000015258789 0 0 1 8,12 H3.689655125141144 a14.100000381469727,14.100000381469727 0 0 1 8,-12 v-0.5 a7.489999771118164,7.489999771118164 0 0 1 4.5,-13.5 a7.5,7.5 0 0 1 4.5,13.5 v0.5 z" id="svg_18"/><path fill="#C9CBCF" d="M60.689655125141144,328.9654951095581 h2 v14 h-2 " id="svg_19"/><path fill="#C9CBCF" d="M63.689655125141144,329.9654951095581 h10 v8 H63.689655125141144 " id="svg_20"/><path fill="#DD3C4C" d="M60.689655125141144,308.9654951095581 h2 v14 h-2 " id="svg_21"/><path fill="#EEC4C8" d="M63.689655125141144,309.9654951095581 h10 v8 H63.689655125141144 " id="svg_22"/><path fill="#FE6502" d="M80.68965512514114,308.9654951095581 h14 v14 H80.68965512514114 " id="svg_23"/><path fill="#FFF" d="M84.68965512514114,317.9654951095581 c-1.3600000143051147,0 -2,0.6399999856948853 -2,2 c0,0.36000001430511475 0.6399999856948853,1 2,1 c0.36000001430511475,0 1,-0.6399999856948853 1,-1 c0,-1.3600000143051147 -0.6399999856948853,-2 -1,-2 zm-2,-4 v2 a5.119999885559082,5.119999885559082 0 0 1 5,5 h2 c0.10000000149011612,-3.809999942779541 -2.990000009536743,-6.900000095367432 -7,-7 zm0,-3 v2 a7.900000095367432,7.900000095367432 0 0 1 8,8 h2 c0,-5.480000019073486 -4.519999980926514,-10 -10,-10 z" id="svg_24"/><path fill="#6C737A" d="M23.28965550661087,336.06550121307373 l-0.699999988079071,3.200000047683716 l3.200000047683716,-0.699999988079071 m-1.6699999570846558,-3.200000047683716 l3.5999999046325684,-3.5999999046325684 l2.4800000190734863,2.4700000286102295 l-3.5999999046325684,3.5999999046325684 m3.190000057220459,-7.570000171661377 c-0.4000000059604645,0 -0.800000011920929,0.10000000149011612 -1.100000023841858,0.4000000059604645 l-0.699999988079071,0.699999988079071 l2.5,2.5 l0.699999988079071,-0.699999988079071 c0.20000000298023224,-0.30000001192092896 0.4000000059604645,-0.699999988079071 0.4000000059604645,-1.100000023841858 c0,-1 -0.800000011920929,-1.7999999523162842 -1.7999999523162842,-1.7999999523162842 z" id="svg_25"/><circle cx="107.68965512514114" cy="440.96550673246384" r="7" fill="#C91D2E" id="svg_26"/><path fill="#FFF" d="M110.88965207338333,442.66550731658936 l-1.899999976158142,-1.899999976158142 l1.899999976158142,-1.899999976158142 v-0.30000001192092896 l-0.8999999761581421,-0.800000011920929 h-0.30000001192092896 l-2,2 l-1.7999999523162842,-2 h-0.30000001192092896 l-0.8999999761581421,0.800000011920929 v0.30000001192092896 l1.899999976158142,1.899999976158142 l-1.899999976158142,1.899999976158142 v0.30000001192092896 l0.8999999761581421,0.8999999761581421 h0.30000001192092896 l1.899999976158142,-1.899999976158142 l1.899999976158142,1.899999976158142 h0.30000001192092896 l0.8999999761581421,-0.8999999761581421 " id="svg_27"/><circle cx="47.689655125141144" cy="335.96550673246384" r="7" fill="#C91D2E" id="svg_28"/><path fill="#FFF" d="M50.8896558880806,337.66550731658936 l-1.899999976158142,-1.899999976158142 l1.899999976158142,-1.899999976158142 v-0.30000001192092896 l-0.8999999761581421,-0.800000011920929 H49.689655125141144 l-2,2 l-1.7999999523162842,-2 h-0.30000001192092896 l-0.8999999761581421,0.800000011920929 v0.30000001192092896 l1.899999976158142,1.899999976158142 l-1.899999976158142,1.899999976158142 v0.30000001192092896 l0.8999999761581421,0.8999999761581421 h0.30000001192092896 l1.899999976158142,-1.899999976158142 l1.899999976158142,1.899999976158142 h0.30000001192092896 l0.8999999761581421,-0.8999999761581421 " id="svg_29"/><circle cx="47.689655125141144" cy="314.96550673246384" r="7" fill="#C9CBCF" id="svg_30"/><path fill="#222426" d="M34.58965665102005,507.56553173065186 l-1.7000000476837158,-0.20000000298023224 c-1.2999999523162842,-0.10000000149011612 -1.899999976158142,-0.6000000238418579 -1.899999976158142,-1.600000023841858 c0,-1.100000023841858 0.800000011920929,-1.7999999523162842 2.4000000953674316,-1.7999999523162842 c1.100000023841858,0 2.0999999046325684,0.30000001192092896 2.799999952316284,0.800000011920929 l1,-1 c-1,-0.800000011920929 -2.299999952316284,-1.100000023841858 -3.799999952316284,-1.100000023841858 c-2.299999952316284,0 -3.9000000953674316,1.2000000476837158 -3.9000000953674316,3.0999999046325684 c0,1.7999999523162842 1.100000023841858,2.700000047683716 3.200000047683716,2.9000000953674316 l1.7999999523162842,0.20000000298023224 c1.2000000476837158,0.10000000149011612 1.7999999523162842,0.6000000238418579 1.7999999523162842,1.600000023841858 c0,1.2999999523162842 -1.100000023841858,1.899999976158142 -2.799999952316284,1.899999976158142 c-1.2999999523162842,0 -2.5,-0.30000001192092896 -3.299999952316284,-1.2000000476837158 l-1,1 c1.2000000476837158,1.100000023841858 2.5999999046325684,1.5 4.400000095367432,1.5 c2.5999999046325684,0 4.300000190734863,-1.2000000476837158 4.300000190734863,-3.200000047683716 c-0.20000000298023224,-2 -1.5,-2.700000047683716 -3.299999952316284,-2.9000000953674316 zm13.300000190734863,-4.800000190734863 c-1.7000000476837158,0 -2.799999952316284,0.30000001192092896 -3.700000047683716,1.5 l1,1 c0.6000000238418579,-0.8999999761581421 1.2999999523162842,-1.2000000476837158 2.700000047683716,-1.2000000476837158 c1.899999976158142,0 2.700000047683716,0.800000011920929 2.700000047683716,2.299999952316284 v1 h-3.200000047683716 c-2.4000000953674316,0 -3.700000047683716,1.2000000476837158 -3.700000047683716,3.0999999046325684 c0,0.800000011920929 0.30000001192092896,1.600000023841858 0.800000011920929,2.200000047683716 c0.699999988079071,0.699999988079071 1.5,1 3,1 c1.399999976158142,0 2.200000047683716,-0.30000001192092896 3.0999999046325684,-1.100000023841858 v1 h1.600000023841858 v-7.199999809265137 c-0.10000000149011612,-2.4000000953674316 -1.5,-3.5999999046325684 -4.300000190734863,-3.5999999046325684 zm2.700000047683716,7 c0,0.8999999761581421 -0.20000000298023224,1.5 -0.5,1.7999999523162842 c-0.699999988079071,0.6000000238418579 -1.5,0.699999988079071 -2.4000000953674316,0.699999988079071 c-1.7000000476837158,0 -2.4000000953674316,-0.6000000238418579 -2.4000000953674316,-1.7999999523162842 c0,-1.2000000476837158 0.800000011920929,-1.899999976158142 2.4000000953674316,-1.899999976158142 h3 l-0.10000000149011612,1.2000000476837158 zm7.599999904632568,-5.599999904632568 c1,0 1.600000023841858,0.30000001192092896 2.4000000953674316,1.2000000476837158 l1,-1 c-1.100000023841858,-1.2000000476837158 -2,-1.600000023841858 -3.5,-1.600000023841858 c-2.700000047683716,0 -4.699999809265137,1.7999999523162842 -4.699999809265137,5.5 c0,3.5999999046325684 2,5.5 4.699999809265137,5.5 c1.5,0 2.4000000953674316,-0.4000000059604645 3.5,-1.600000023841858 l-1.100000023841858,-1 c-0.800000011920929,0.8999999761581421 -1.399999976158142,1.2000000476837158 -2.4000000953674316,1.2000000476837158 s-1.899999976158142,-0.4000000059604645 -2.5,-1.2000000476837158 c-0.5,-0.699999988079071 -0.699999988079071,-1.5 -0.699999988079071,-2.9000000953674316 c0,-1.2999999523162842 0.20000000298023224,-2.200000047683716 0.699999988079071,-2.9000000953674316 c0.699999988079071,-0.800000011920929 1.600000023841858,-1.2000000476837158 2.5999999046325684,-1.2000000476837158 zm13.399999618530273,-1.2999999523162842 H69.68965512514114 l-4.800000190734863,4.699999809265137 v-9.5 h-1.600000023841858 v15.399999618530273 h1.600000023841858 v-3.9000000953674316 l1.899999976158142,-1.899999976158142 l3.5999999046325684,5.800000190734863 h1.899999976158142 l-4.400000095367432,-6.900000095367432 l3.700000047683716,-3.700000047683716 zm7.300000190734863,-0.5 c-1.600000023841858,0 -2.700000047683716,0.6000000238418579 -3.4000000953674316,1.399999976158142 c-1,1 -1.2999999523162842,2.299999952316284 -1.2999999523162842,4.300000190734863 s0.30000001192092896,3.299999952316284 1.2999999523162842,4.300000190734863 c0.699999988079071,0.699999988079071 1.7999999523162842,1.399999976158142 3.4000000953674316,1.399999976158142 c1.600000023841858,0 2.799999952316284,-0.6000000238418579 3.4000000953674316,-1.399999976158142 c1,-1 1.2999999523162842,-2.299999952316284 1.2999999523162842,-4.300000190734863 s-0.30000001192092896,-3.299999952316284 -1.2999999523162842,-4.300000190734863 c-0.6000000238418579,-0.800000011920929 -1.7000000476837158,-1.399999976158142 -3.4000000953674316,-1.399999976158142 zm1.2999999523162842,8.300000190734863 c-0.30000001192092896,0.30000001192092896 -0.699999988079071,0.5 -1.2999999523162842,0.5 c-0.6000000238418579,0 -1,-0.20000000298023224 -1.2999999523162842,-0.5 c-0.6000000238418579,-0.6000000238418579 -0.6000000238418579,-1.600000023841858 -0.6000000238418579,-2.700000047683716 c0,-1.2000000476837158 0.10000000149011612,-2.0999999046325684 0.6000000238418579,-2.700000047683716 c0.30000001192092896,-0.30000001192092896 0.699999988079071,-0.5 1.2999999523162842,-0.5 c0.6000000238418579,0 1,0.20000000298023224 1.2999999523162842,0.5 c0.6000000238418579,0.6000000238418579 0.6000000238418579,1.5 0.6000000238418579,2.700000047683716 c0.10000000149011612,1.2000000476837158 0,2.200000047683716 -0.6000000238418579,2.700000047683716 zm10.800000190734863,-8.199999809265137 l-2.200000047683716,6.900000095367432 l-2.299999952316284,-6.900000095367432 h-2.9000000953674316 l4.099999904632568,11.100000381469727 h2.200000047683716 l4.099999904632568,-11.100000381469727 h-3 zm7.599999904632568,-0.10000000149011612 c-2.9000000953674316,0 -4.800000190734863,2 -4.800000190734863,5.699999809265137 c0,4.5 2.5,5.699999809265137 5.099999904632568,5.699999809265137 c2,0 3.0999999046325684,-0.6000000238418579 4.199999809265137,-1.7000000476837158 l-1.7000000476837158,-1.600000023841858 c-0.699999988079071,0.699999988079071 -1.2999999523162842,1 -2.5,1 c-1.600000023841858,0 -2.4000000953674316,-1 -2.4000000953674316,-2.5 h6.900000095367432 v-1.2000000476837158 c0,-3.200000047683716 -1.7000000476837158,-5.400000095367432 -4.800000190734863,-5.400000095367432 zm-2.0999999046325684,4.599999904632568 c0,-0.5 0.10000000149011612,-0.800000011920929 0.30000001192092896,-1.2000000476837158 c0.30000001192092896,-0.699999988079071 0.8999999761581421,-1.2000000476837158 1.899999976158142,-1.2000000476837158 c0.8999999761581421,0 1.600000023841858,0.5 1.899999976158142,1.2000000476837158 c0.20000000298023224,0.4000000059604645 0.20000000298023224,0.699999988079071 0.30000001192092896,1.2000000476837158 h-4.400000095367432 zm11,-3.4000000953674316 v-1.100000023841858 h-2.700000047683716 v11.100000381469727 h2.799999952316284 v-6.699999809265137 c0,-1.399999976158142 0.8999999761581421,-2 1.7999999523162842,-2 c0.699999988079071,0 1,0.20000000298023224 1.5,0.699999988079071 l2.0999999046325684,-2.0999999046325684 c-0.800000011920929,-0.800000011920929 -1.5,-1 -2.5999999046325684,-1 c-1.2999999523162842,-0.10000000149011612 -2.299999952316284,0.4000000059604645 -2.9000000953674316,1.100000023841858 zm6.300000190734863,-2.299999952316284 v12.300000190734863 h2.799999952316284 v-8.800000190734863 h2 v-2.0999999046325684 h-2 v-1.2000000476837158 c0,-0.6000000238418579 0.30000001192092896,-1 1,-1 h1.100000023841858 v-2.299999952316284 h-1.600000023841858 c-2.299999952316284,0 -3.299999952316284,1.600000023841858 -3.299999952316284,3.0999999046325684 zm16.200000762939453,1.100000023841858 c-1.600000023841858,0 -2.700000047683716,0.6000000238418579 -3.4000000953674316,1.399999976158142 c-1,1 -1.2999999523162842,2.299999952316284 -1.2999999523162842,4.300000190734863 s0.30000001192092896,3.299999952316284 1.2999999523162842,4.300000190734863 c0.699999988079071,0.699999988079071 1.7999999523162842,1.399999976158142 3.4000000953674316,1.399999976158142 c1.600000023841858,0 2.799999952316284,-0.6000000238418579 3.4000000953674316,-1.399999976158142 c1,-1 1.2999999523162842,-2.299999952316284 1.2999999523162842,-4.300000190734863 s-0.30000001192092896,-3.299999952316284 -1.2999999523162842,-4.300000190734863 c-0.6000000238418579,-0.800000011920929 -1.7999999523162842,-1.399999976158142 -3.4000000953674316,-1.399999976158142 zm1.2999999523162842,8.300000190734863 c-0.30000001192092896,0.30000001192092896 -0.699999988079071,0.5 -1.2999999523162842,0.5 c-0.6000000238418579,0 -1,-0.20000000298023224 -1.2999999523162842,-0.5 c-0.6000000238418579,-0.6000000238418579 -0.6000000238418579,-1.600000023841858 -0.6000000238418579,-2.700000047683716 c0,-1.2000000476837158 0.10000000149011612,-2.0999999046325684 0.6000000238418579,-2.700000047683716 c0.30000001192092896,-0.30000001192092896 0.699999988079071,-0.5 1.2999999523162842,-0.5 c0.6000000238418579,0 1,0.20000000298023224 1.2999999523162842,0.5 c0.6000000238418579,0.6000000238418579 0.6000000238418579,1.5 0.6000000238418579,2.700000047683716 c0,1.2000000476837158 0,2.200000047683716 -0.6000000238418579,2.700000047683716 zm16.5,-8.199999809265137 l-1.7999999523162842,6.900000095367432 l-2.299999952316284,-6.900000095367432 h-2 l-2.299999952316284,6.900000095367432 l-1.7999999523162842,-6.900000095367432 H134.68965512514114 l3.4000000953674316,11.100000381469727 h2.299999952316284 l2.299999952316284,-7 l2.299999952316284,7 h2.299999952316284 l3.4000000953674316,-11.100000381469727 h-2.9000000953674316 zm-25.100000381469727,7.699999809265137 v-12.100000381469727 h-2.799999952316284 v12.300000190734863 c0,1.600000023841858 1,3.200000047683716 3.200000047683716,3.200000047683716 h1.600000023841858 v-2.299999952316284 h-1 c-0.699999988079071,0 -1,-0.4000000059604645 -1,-1.100000023841858 zm-80.69999694824219,-5.599999904632568 l1.399999976158142,-1.399999976158142 h-3 v-3.5 h-1.600000023841858 v11.100000381469727 c0,1.600000023841858 0.8999999761581421,2.9000000953674316 2.700000047683716,2.9000000953674316 h1.100000023841858 v-1.2999999523162842 h-0.800000011920929 c-1,0 -1.5,-0.6000000238418579 -1.5,-1.600000023841858 v-6.099999904632568 h1.7000000476837158 v-0.10000000149011612 z" id="svg_31"/><path fill="#BCBBBB" d="M21.689655125141144,515.9655561447144 v-8 h3 v11 H0.6896551251411438 v-11 h3 v8 " id="svg_32"/><path fill="#F48024" d="M6.089655220508575,508.06553173065186 l13.5600004196167,1.9600000381469727 l0.17000000178813934,-2.380000114440918 l-13.260000228881836,-2.549999952316284 l-0.4699999988079071,2.9700000286102295 zm1.7999999523162842,-6.800000190734863 l12,5.599999904632568 l1.100000023841858,-2.4000000953674316 l-12,-5.599999904632568 l-1.100000023841858,2.4000000953674316 zm3.4000000953674316,-5.900000095367432 l10.199999809265137,8.5 l1.7000000476837158,-2 l-10.199999809265137,-8.5 l-1.7000000476837158,2 zm6.5,-6.199999809265137 l-2.0999999046325684,1.600000023841858 l7.900000095367432,10.600000381469727 l2.0999999046325684,-1.600000023841858 l-7.900000095367432,-10.600000381469727 zM5.689655125141144,513.9655561447144 h14 v-3 H5.689655125141144 v3 z" id="svg_33"/><path fill="#FFF" d="M50.8896558880806,316.66550731658936 l-1.899999976158142,-1.899999976158142 l1.899999976158142,-1.899999976158142 v-0.30000001192092896 l-0.8999999761581421,-0.800000011920929 H49.689655125141144 l-2,2 l-1.7999999523162842,-2 h-0.30000001192092896 l-0.8999999761581421,0.800000011920929 v0.30000001192092896 l1.899999976158142,1.899999976158142 l-1.899999976158142,1.899999976158142 v0.30000001192092896 l0.8999999761581421,0.8999999761581421 h0.30000001192092896 l1.899999976158142,-1.899999976158142 l1.899999976158142,1.899999976158142 h0.30000001192092896 l0.8999999761581421,-0.8999999761581421 " id="svg_34"/><path fill="#222426" d="M42.48965436220169,20.365517616271973 l-2.200000047683716,-0.20000000298023224 c-1.7000000476837158,-0.10000000149011612 -2.299999952316284,-0.800000011920929 -2.299999952316284,-2 c0,-1.399999976158142 1,-2.200000047683716 3,-2.200000047683716 c1.2999999523162842,-0.10000000149011612 2.5999999046325684,0.30000001192092896 3.5999999046325684,1.100000023841858 l1.2999999523162842,-1.2999999523162842 c-1.399999976158142,-1 -3.0999999046325684,-1.5 -4.800000190734863,-1.399999976158142 c-2.9000000953674316,0 -4.900000095367432,1.5 -4.900000095367432,3.9000000953674316 c0,2.200000047683716 1.399999976158142,3.4000000953674316 4,3.5999999046325684 l2.200000047683716,0.20000000298023224 c1.600000023841858,0.10000000149011612 2.200000047683716,0.800000011920929 2.200000047683716,2 c0,1.600000023841858 -1.399999976158142,2.4000000953674316 -3.5999999046325684,2.4000000953674316 c-1.600000023841858,0.10000000149011612 -3.0999999046325684,-0.5 -4.199999809265137,-1.600000023841858 l-1.2999999523162842,1.2999999523162842 c1.5,1.399999976158142 3.5,2 5.5,1.899999976158142 c3.200000047683716,0 5.5,-1.5 5.5,-4.099999904632568 c0,-2.5999999046325684 -1.600000023841858,-3.4000000953674316 -4,-3.5999999046325684 zm16.799999237060547,-6.099999904632568 c-2.200000047683716,0 -3.5,0.4000000059604645 -4.699999809265137,1.899999976158142 l1.2999999523162842,1.2999999523162842 c0.800000011920929,-1.100000023841858 2.0999999046325684,-1.7000000476837158 3.4000000953674316,-1.5 c2.5,0 3.4000000953674316,1 3.4000000953674316,2.9000000953674316 v1.2999999523162842 h-4 c-3,0 -4.599999904632568,1.5 -4.599999904632568,3.9000000953674316 c0,1 0.30000001192092896,2 1,2.700000047683716 c0.800000011920929,0.8999999761581421 1.899999976158142,1.2000000476837158 3.799999952316284,1.2000000476837158 c1.399999976158142,0.10000000149011612 2.9000000953674316,-0.4000000059604645 3.9000000953674316,-1.399999976158142 v1.2999999523162842 h2 v-9.100000381469727 c-0.10000000149011612,-2.9000000953674316 -1.899999976158142,-4.5 -5.5,-4.5 zm3.4000000953674316,8.899999618530273 c0.10000000149011612,0.800000011920929 -0.10000000149011612,1.7000000476837158 -0.699999988079071,2.299999952316284 a4,4 0 0 1 -3,0.8999999761581421 c-2.0999999046325684,0 -3.0999999046325684,-0.699999988079071 -3.0999999046325684,-2.299999952316284 c0,-1.600000023841858 1,-2.4000000953674316 3,-2.4000000953674316 H62.689655125141144 v1.5 zm9.699999809265137,-7.099999904632568 c1.2000000476837158,0 2.4000000953674316,0.5 3.0999999046325684,1.5 l1.2999999523162842,-1.2999999523162842 a5.400000095367432,5.400000095367432 0 0 0 -4.400000095367432,-2 c-3.4000000953674316,0 -5.900000095367432,2.299999952316284 -5.900000095367432,6.900000095367432 c0,4.599999904632568 2.5999999046325684,6.900000095367432 5.900000095367432,6.900000095367432 c1.7000000476837158,0.10000000149011612 3.299999952316284,-0.699999988079071 4.400000095367432,-2 l-1.2999999523162842,-1.2999999523162842 c-0.699999988079071,1 -1.899999976158142,1.5 -3.0999999046325684,1.5 c-1.2000000476837158,0.10000000149011612 -2.4000000953674316,-0.5 -3.0999999046325684,-1.5 c-0.699999988079071,-1.100000023841858 -1,-2.299999952316284 -0.8999999761581421,-3.5999999046325684 c-0.10000000149011612,-1.2999999523162842 0.20000000298023224,-2.5 0.8999999761581421,-3.5999999046325684 c0.699999988079071,-1 1.899999976158142,-1.600000023841858 3.0999999046325684,-1.5 zm16.799999237060547,-1.600000023841858 h-2.4000000953674316 L80.68965512514114,20.365517616271973 V8.4655179977417 h-2 v19.399999618530273 h2 V22.9655179977417 l2.4000000953674316,-2.4000000953674316 l4.5,7.300000190734863 h2.4000000953674316 l-5.599999904632568,-8.600000381469727 l4.800000190734863,-4.800000190734863 zm9.199999809265137,-0.699999988079071 c-1.600000023841858,-0.10000000149011612 -3.200000047683716,0.5 -4.300000190734863,1.7000000476837158 c-1.2999999523162842,1.2999999523162842 -1.600000023841858,2.9000000953674316 -1.600000023841858,5.400000095367432 c0,2.5 0.30000001192092896,4.099999904632568 1.600000023841858,5.400000095367432 c1.100000023841858,1.100000023841858 2.700000047683716,1.7000000476837158 4.300000190734863,1.7000000476837158 c1.600000023841858,0.10000000149011612 3.200000047683716,-0.5 4.300000190734863,-1.7000000476837158 c1.2999999523162842,-1.2999999523162842 1.600000023841858,-2.9000000953674316 1.600000023841858,-5.400000095367432 c0,-2.5 -0.30000001192092896,-4.099999904632568 -1.600000023841858,-5.400000095367432 a5.380000114440918,5.380000114440918 0 0 0 -4.300000190734863,-1.7000000476837158 zm1.7000000476837158,10.5 c-0.8999999761581421,0.800000011920929 -2.299999952316284,0.800000011920929 -3.200000047683716,0 c-0.699999988079071,-0.699999988079071 -0.800000011920929,-2 -0.800000011920929,-3.4000000953674316 s0.10000000149011612,-2.700000047683716 0.800000011920929,-3.4000000953674316 c0.8999999761581421,-0.800000011920929 2.299999952316284,-0.800000011920929 3.200000047683716,0 c0.699999988079071,0.699999988079071 0.800000011920929,1.899999976158142 0.800000011920929,3.4000000953674316 s-0.10000000149011612,2.700000047683716 -0.800000011920929,3.4000000953674316 zM113.68965512514114,13.865517616271973 l-2.799999952316284,8.600000381469727 l-2.799999952316284,-8.600000381469727 h-3.700000047683716 l5.199999809265137,14 h2.700000047683716 l5.099999904632568,-14 H113.68965512514114 zm9.600000381469727,-0.10000000149011612 c-3.5999999046325684,0 -6.099999904632568,2.5999999046325684 -6.099999904632568,7.099999904632568 c0,5.699999809265137 3.200000047683716,7.199999809265137 6.5,7.199999809265137 c2,0.10000000149011612 4,-0.699999988079071 5.300000190734863,-2.200000047683716 l-2.0999999046325684,-2.0999999046325684 c-0.800000011920929,0.8999999761581421 -2,1.399999976158142 -3.200000047683716,1.2999999523162842 c-1.600000023841858,0.10000000149011612 -3,-1.100000023841858 -3.0999999046325684,-2.700000047683716 V21.9655179977417 h8.699999809265137 v-1.600000023841858 c0.10000000149011612,-3.799999952316284 -2.0999999046325684,-6.599999904632568 -6,-6.599999904632568 zm-2.700000047683716,5.800000190734863 c0,-0.5 0.10000000149011612,-1 0.30000001192092896,-1.5 c0.4000000059604645,-0.8999999761581421 1.2999999523162842,-1.399999976158142 2.299999952316284,-1.399999976158142 c1,-0.10000000149011612 1.899999976158142,0.5 2.299999952316284,1.399999976158142 c0.20000000298023224,0.5 0.30000001192092896,1 0.30000001192092896,1.5 h-5.199999809265137 zm13.899999618530273,-4.300000190734863 V13.9655179977417 h-3.4000000953674316 v14 h3.5 v-8.399999618530273 c-0.10000000149011612,-1.2999999523162842 0.800000011920929,-2.4000000953674316 2.0999999046325684,-2.5999999046325684 h0.20000000298023224 c0.699999988079071,0 1.399999976158142,0.30000001192092896 1.7999999523162842,0.800000011920929 l2.5999999046325684,-2.5999999046325684 a4.099999904632568,4.099999904632568 0 0 0 -3.299999952316284,-1.2999999523162842 c-1.2999999523162842,-0.10000000149011612 -2.5999999046325684,0.4000000059604645 -3.5,1.399999976158142 zm7.900000095367432,-2.799999952316284 v15.399999618530273 h3.5 v-11 h2.5999999046325684 v-2.700000047683716 h-2.5999999046325684 v-1.5 c-0.10000000149011612,-0.6000000238418579 0.30000001192092896,-1.2000000476837158 0.8999999761581421,-1.2999999523162842 h1.600000023841858 v-3 h-2 a3.9000000953674316,3.9000000953674316 0 0 0 -4,3.799999952316284 v0.30000001192092896 zm20.399999618530273,1.2999999523162842 c-1.600000023841858,-0.10000000149011612 -3.200000047683716,0.5 -4.300000190734863,1.7000000476837158 c-1.2999999523162842,1.2999999523162842 -1.600000023841858,2.9000000953674316 -1.600000023841858,5.400000095367432 c0,2.5 0.30000001192092896,4.099999904632568 1.600000023841858,5.400000095367432 c1.100000023841858,1.100000023841858 2.700000047683716,1.7000000476837158 4.300000190734863,1.7000000476837158 c1.600000023841858,0.10000000149011612 3.200000047683716,-0.5 4.300000190734863,-1.7000000476837158 c1.2999999523162842,-1.2999999523162842 1.600000023841858,-2.9000000953674316 1.600000023841858,-5.400000095367432 c0,-2.5 -0.30000001192092896,-4.099999904632568 -1.600000023841858,-5.400000095367432 a5.380000114440918,5.380000114440918 0 0 0 -4.300000190734863,-1.7000000476837158 zm1.7000000476837158,10.5 c-0.8999999761581421,0.800000011920929 -2.299999952316284,0.800000011920929 -3.200000047683716,0 c-0.699999988079071,-0.699999988079071 -0.800000011920929,-2 -0.800000011920929,-3.4000000953674316 s0.10000000149011612,-2.700000047683716 0.800000011920929,-3.4000000953674316 c0.8999999761581421,-0.800000011920929 2.299999952316284,-0.800000011920929 3.200000047683716,0 c0.699999988079071,0.699999988079071 0.800000011920929,1.899999976158142 0.800000011920929,3.4000000953674316 s-0.10000000149011612,2.700000047683716 -0.800000011920929,3.4000000953674316 zm20.700000762939453,-10.399999618530273 l-2.299999952316284,8.600000381469727 l-2.9000000953674316,-8.600000381469727 h-2.5 l-2.799999952316284,8.699999809265137 l-2.299999952316284,-8.600000381469727 H168.68965512514114 l4.300000190734863,14 h2.9000000953674316 l2.9000000953674316,-8.800000190734863 L181.68965512514114,27.9655179977417 h3 l4.300000190734863,-14 l-3.799999952316284,-0.10000000149011612 zm-31.600000381469727,9.800000190734863 V8.4655179977417 h-3.5 v15.399999618530273 a3.799999952316284,3.799999952316284 0 0 0 3.5999999046325684,4 h2.5 v-3 h-1.2999999523162842 c-0.6000000238418579,0.10000000149011612 -1.100000023841858,-0.20000000298023224 -1.2999999523162842,-0.800000011920929 v-0.4000000059604645 zM53.689655125141144,14.765517234802246 h-3.700000047683716 v-4.400000095367432 h-2 v13.899999618530273 c0,2 1.100000023841858,3.5999999046325684 3.4000000953674316,3.5999999046325684 h1.399999976158142 v-1.7000000476837158 h-1 c-1.2999999523162842,0 -1.7999999523162842,-0.699999988079071 -1.7999999523162842,-2 v-7.699999809265137 h1.899999976158142 l1.7999999523162842,-1.7000000476837158 z" id="svg_35"/><path fill="#BCBBBB" d="M26.689655125141144,29.9655179977417 v-9 h4 v13 H0.6896551251411438 V20.9655179977417 h4 v9 " id="svg_36"/><path fill="#F48024" d="M23.779655277729034,22.955519676208496 l0.699999988079071,-2.950000047683716 l-16.110000610351562,-3.3499999046325684 L7.689655125141144,19.9655179977417 l16.09000015258789,2.990000009536743 zM9.78965550661087,12.165518760681152 l15,7 l1.399999976158142,-3 l-15,-7 l-1.399999976158142,3 zm4.199999809265137,-7.400000095367432 L26.689655125141144,15.365517616271973 l2.0999999046325684,-2.5 l-12.699999809265137,-10.600000381469727 l-2.0999999046325684,2.5 zM22.189655125141144,-3.034482002258301 l-2.700000047683716,2 l9.899999618530273,13.300000190734863 l2.700000047683716,-2 L22.189655125141144,-3.034482002258301 zM7.689655125141144,26.9655179977417 h16 v-3 H7.689655125141144 v3 z" id="svg_37"/></g></g></svg>