<svg fill="#fff" preserveAspectRatio="xMidYMid meet" height="1em" width="1em"
     viewBox="0 0 21 19"
     aria-label="icon"
     xmlns="http://www.w3.org/2000/svg"
     style="color:hsla(0,0%,100%,.9);vertical-align:middle">
    <g>
        <g id="⚙️-Site-Navigation" stroke="none" stroke-width="1" fill-rule="evenodd">
            <g id="✅-Site-Navigation" transform="translate(-332.000000, -420.000000)"
               fill-rule="nonzero">
                <g id="Group-16" transform="translate(79.000000, 332.000000)">
                    <g id="Nav" transform="translate(0.000000, 55.000000)">
                        <g id="Group-32">
                            <g id="Group-36" transform="translate(253.000000, 33.000000)">
                                <g id="002-book">
                                    <path d="M20.6744998,4.32928723 C21.0109748,4.79933824 21.0865469,5.33121641 20.901393,5.92513836 L17.4336871,17.1321007 C17.2742392,17.6602095 16.9525606,18.103268 16.4691816,18.4620561 C15.9857584,18.8205843 15.4707989,19 14.9245682,19 L3.28526528,19 C2.63784476,19 2.01374516,18.7796839 1.41261314,18.3384018 C0.811525277,17.897293 0.393382963,17.3547565 0.15796535,16.7118754 C-0.0439284406,16.1591138 -0.0522321012,15.6354243 0.132701021,15.1404605 C0.132701021,15.1075322 0.145377354,14.996356 0.170641683,14.8068885 C0.195861844,14.6171177 0.212557502,14.4643912 0.221037836,14.3490556 C0.229562339,14.2828524 0.216886006,14.1942061 0.183318016,14.0830299 C0.149705858,13.9715503 0.136985357,13.8911794 0.145377354,13.841657 C0.162205518,13.7508876 0.195861844,13.6643209 0.246257997,13.5818703 C0.296742487,13.499463 0.366042718,13.4024546 0.454335365,13.2912783 C0.542495507,13.1801021 0.61201658,13.0830937 0.662280228,13.0005131 C0.855782022,12.6874779 1.04495531,12.309756 1.22988843,11.8687772 C1.41486572,11.4274951 1.5410107,11.0500332 1.60819084,10.736868 C1.63336684,10.6544607 1.63544275,10.5308064 1.6145511,10.3659051 C1.59361527,10.2010038 1.59140685,10.0855382 1.60819084,10.0195517 C1.63336684,9.92908565 1.70496383,9.81362008 1.82254013,9.67337166 C1.94038144,9.53303658 2.01175758,9.43828116 2.03688941,9.38884544 C2.21351887,9.09201444 2.38997166,8.71260282 2.56660112,8.25087052 C2.74323058,7.78900825 2.84813055,7.41795868 2.88191938,7.13750516 C2.89039972,7.06328658 2.87975513,6.93144353 2.85033897,6.74167273 C2.82092281,6.55203191 2.82304289,6.43652301 2.85669922,6.39531935 C2.89022304,6.28812918 2.98266752,6.16248184 3.13403265,6.01820404 C3.28539779,5.87383959 3.37779809,5.78103387 3.41141025,5.73987353 C3.57107905,5.52557984 3.74991693,5.17706013 3.94739388,4.69457436 C4.14487083,4.21200194 4.26050372,3.81417649 4.29407171,3.50083803 C4.30259621,3.43480819 4.28991988,3.32974102 4.25635189,3.18554987 C4.22273973,3.04114209 4.21443607,2.93187224 4.23113173,2.85774031 C4.24782739,2.79171047 4.28576805,2.71749189 4.3445562,2.63504124 C4.40338852,2.55259059 4.47909317,2.45770519 4.57144931,2.35051502 C4.66402629,2.24328152 4.73535827,2.15671484 4.78584276,2.09072832 C4.85315541,1.99181354 4.92232314,1.86607955 4.99387596,1.71352636 C5.06520794,1.56079986 5.12832459,1.41639207 5.18296091,1.28034634 C5.23759723,1.1443006 5.30495405,0.995820117 5.38467803,0.834861548 C5.46449034,0.674119614 5.54655524,0.542146586 5.63060772,0.439029118 C5.71461603,0.335998303 5.82609709,0.239206529 5.96478589,0.148480488 C6.10347469,0.0576244673 6.25483983,0.0102684201 6.41870462,0.00597908006 C6.58261358,0.00203635335 7.53908044,1.42108547e-14 7.64835308,1.42108547e-14 L17.2446022,1.42108547e-14 C17.8667583,1.42108547e-14 18.3458531,0.230974462 18.6821955,0.692663427 C19.0185379,1.15435239 19.0941542,1.69043324 18.9092653,2.30064602 L15.4540591,13.5079117 C15.1515938,14.4891307 14.8511603,15.1221333 14.5524494,15.4066595 C14.2539593,15.6911858 13.713868,15.8335139 12.9319988,15.8335139 L1.97372859,15.8335139 C1.74661463,15.8335139 1.58690167,15.8955143 1.49450136,16.0192986 C1.40196855,16.1512716 1.39772838,16.3284344 1.48178086,16.5511334 C1.68363048,17.1288079 2.28882601,17.4170169 3.29763243,17.4170169 L14.9368029,17.4170169 C15.1806125,17.4170169 15.4159417,17.3531101 15.6430115,17.2251664 C15.869728,17.0973094 16.0169413,16.9262124 16.0843423,16.7118321 L19.8673664,4.50285386 C19.926287,4.3212718 19.9471787,4.08622463 19.9300855,3.79745239 C20.2500414,3.92119335 20.4982679,4.0983561 20.6744998,4.32928723 Z M6.87217768,9.73430723 C6.68982127,10.2521116 6.95653556,10.5056409 7.46575168,10.3014426 L13.5359573,7.86725854 C14.0461356,7.66267439 14.1140442,7.21155256 13.6823503,6.8552881 L9.96871087,3.79052897 C9.53938321,3.43621727 9.04131278,3.57500835 8.86115888,4.08655867 L6.87217768,9.73430723 Z"
                                          id="Shape"></path>
                                </g>
                            </g>
                        </g>
                    </g>
                </g>
            </g>
        </g>
    </g>
</svg>