<svg height="32px" width="32px" xmlns="http://www.w3.org/2000/svg" viewBox="0 0 32 29.999">
    <path d="M27.817 4.714A17.485 17.485 0 0 0 15.608 0h-.1A16.361 16.361 0 0 0 4.062 4.285c-5.22 5.25-5.646 15.105.107 21A18.222 18.222 0 0 0 16.67 30a15.218 15.218 0 0 0 10.93-4.182c5.223-5.142 6.395-14.998.217-21.104zM8.386 25.522c1.086-.4 2.662-.917 3.648-1.209 1.008-.378 1.764-1.26 1.764-3.024a1.735 1.735 0 0 0-.42-1.345 17.115 17.115 0 0 1-1.6-3.78 3.585 3.585 0 0 1-.8-2.311c0-.672.336-.756.588-.756h.42l-.084-2.226c0-1.513.168-2.563 1.05-3.067a5.741 5.741 0 0 1 3.235-.588 4.122 4.122 0 0 1 2.562.882 3.856 3.856 0 0 1 1.008 3.025l-.084 1.848h.427c.294 0 .545.168.545.84 0 .714-.251 2.017-.8 2.269-.336.5-.84 2.9-1.638 3.78-.294.294-.21.84-.21 1.345a2.926 2.926 0 0 0 1.89 3.024 39 39 0 0 1 4.187 1.435 13.767 13.767 0 0 1-7.406 1.995 17.088 17.088 0 0 1-8.282-2.137zm17.558-1.354c-.017.017-.037.032-.054.049a20.92 20.92 0 0 0-4.278-1.417c-1.009-.252-1.6-.462-1.723-1.428-.21-1.513 1.344-3.193 1.513-4.243a4.857 4.857 0 0 0 1.176-3.361A2.13 2.13 0 0 0 21.57 11.8s.126-1.26.126-2.227a4.035 4.035 0 0 0-2.017-3.612A9.369 9.369 0 0 0 16.7 5.2a7.738 7.738 0 0 0-4.831.672A4.519 4.519 0 0 0 9.976 9.82a12.5 12.5 0 0 0 .084 1.933 2.417 2.417 0 0 0-1.009 2.1 5.313 5.313 0 0 0 .925 3.319c.126 1.05 2.016 3.36 1.89 4.285-.21.966-.672 1.176-1.68 1.428a21.791 21.791 0 0 0-3.9 1.149c-.147-.13-.307-.251-.444-.386-5.027-5.148-4.21-13.6-.136-17.698a13.992 13.992 0 0 1 9.8-3.61h.1a15.031 15.031 0 0 1 10.566 4.038 11.9 11.9 0 0 1 3.488 8.56 13.155 13.155 0 0 1-3.716 9.23z"></path>
</svg>