<svg width="24px" height="24px" viewBox="0 0 24 24" version="1.1" xmlns="http://www.w3.org/2000/svg" xmlns:xlink="http://www.w3.org/1999/xlink">
    <g stroke="none" class="icon_svg-fill_as_stroke" fill="#666" fill-rule="nonzero">
        <path d="M2.4913634,2.04921404 C2.98092279,1.55513216 3.64670648,1.27576655 4.34511285,1.27256944 L21.6432503,1.27256944 C21.9884286,1.27256944 22.2682507,1.55239192 22.2682503,1.89757017 L22.2682226,20.0928469 C22.2714301,20.7904709 21.9965456,21.4606224 21.5043785,21.9550524 C21.0122114,22.4494823 20.3433278,22.7274379 19.6457031,22.7274306 L2.35674959,22.7274306 C2.01157134,22.7274306 1.73174919,22.4476081 1.73174959,22.1024298 L1.73177083,3.90562151 C1.72897519,3.21063504 2.00216491,2.54293169 2.4913634,2.04921404 Z M5.45178819,5.75945313 C5.13477579,5.75945313 4.87778646,6.01644246 4.87778646,6.33345486 C4.87778646,6.65046727 5.13477579,6.9074566 5.45178819,6.9074566 L11.5407986,6.9074566 C11.857811,6.9074566 12.1148003,6.65046727 12.1148003,6.33345486 C12.1148003,6.01644246 11.857811,5.75945313 11.5407986,5.75945313 L5.45178819,5.75945313 Z M5.45178819,9.60756076 C5.13477579,9.60756076 4.87778646,9.86455009 4.87778646,10.1815625 C4.87778646,10.4985749 5.13477579,10.7555642 5.45178819,10.7555642 L11.5407986,10.7555642 C11.857811,10.7555642 12.1148003,10.4985749 12.1148003,10.1815625 C12.1148003,9.86455009 11.857811,9.60756076 11.5407986,9.60756076 L5.45178819,9.60756076 Z M18.7686285,18.4425955 C19.0856409,18.4425955 19.3426302,18.1856062 19.3426302,17.8685938 C19.3426302,17.5515813 19.0856409,17.294592 18.7686285,17.294592 L5.45178819,17.294592 C5.13477579,17.294592 4.87778646,17.5515813 4.87778646,17.8685938 C4.87778646,18.1856062 5.13477579,18.4425955 5.45178819,18.4425955 L18.7686285,18.4425955 Z M18.7686285,14.5990799 C19.0856409,14.5990799 19.3426302,14.3420905 19.3426302,14.0250781 C19.3426302,13.7080657 19.0856409,13.4510764 18.7686285,13.4510764 L5.45178819,13.4510764 C5.13477579,13.4510764 4.87778646,13.7080657 4.87778646,14.0250781 C4.87778646,14.3420905 5.13477579,14.5990799 5.45178819,14.5990799 L18.7686285,14.5990799 Z M19.3472222,10.3927951 L19.3472222,5.90180556 C19.3472668,5.74715364 19.2849044,5.59902688 19.17426,5.49097576 C19.0636157,5.38292463 18.9140518,5.32409217 18.7594444,5.32780382 L14.2684549,5.32780382 C13.9514425,5.32780382 13.6944531,5.58479315 13.6944531,5.90180556 L13.6944531,10.3927951 C13.6944531,10.7098075 13.9514425,10.9667969 14.2684549,10.9667969 L18.7732205,10.9667969 C19.0902329,10.9667969 19.3472222,10.7098075 19.3472222,10.3927951 Z"></path>
    </g>
</svg>