<svg width="24px" height="24px" viewBox="0 0 24 24" version="1.1" xmlns="http://www.w3.org/2000/svg" xmlns:xlink="http://www.w3.org/1999/xlink">
    <g stroke="none" class="icon_svg-fill_as_stroke" fill="#666" fill-rule="nonzero">
        <path d="M8.34138274,2.68449938 C8.4139274,2.92924151 8.41266315,3.18967341 8.34389684,3.41103916 C8.20752364,3.92243866 7.80459805,4.375 7.24,4.375 C6.86280158,4.375 6.55107974,4.16718544 6.18694715,3.80305285 C6.06820568,3.68431138 5.9465184,3.54910329 5.8223617,3.40011525 C5.76307392,3.32896992 5.70437379,3.25609389 5.64658001,3.18219914 C5.14716084,3.60642159 4.59810475,3.98561558 3.98281494,4.32590442 C3.35564226,4.59033527 2.69437313,4.7613396 2.02010189,4.8345319 C2.16388002,5.48018959 2.54065684,6.06743833 3.10472055,6.46785997 C4.04159534,7.13293547 5.29461019,7.14025388 6.23918974,6.48616728 C6.52297172,6.2896587 6.91232414,6.36040777 7.10883272,6.64418974 C7.3053413,6.92797172 7.23459223,7.31732414 6.95081026,7.51383272 C5.57373091,8.46740951 3.74699132,8.45674018 2.38114454,7.48714294 C1.01529777,6.5175457 0.402693118,4.7965556 0.848688319,3.18201402 C1.29468352,1.56747245 2.70381663,0.404959964 4.37369389,0.273940292 C6.04357115,0.14292062 7.6167678,1.07143754 8.3091113,2.59666431 C8.32221974,2.6255421 8.33294932,2.65489386 8.34138274,2.68449938 Z M20.4878034,8.03429234 C19.333131,8.40186164 18.0471552,8.22912331 17.0141897,7.51383272 C16.7304078,7.31732414 16.6596587,6.92797172 16.8561673,6.64418974 C17.0526759,6.36040777 17.4420283,6.2896587 17.7258103,6.48616728 C18.5410833,7.05071386 19.5861262,7.12254458 20.4593531,6.70400496 C21.1656032,6.24080478 21.3903212,5.30034864 20.9424018,4.53232821 C20.8901611,4.42915286 20.7367041,4.25664608 20.5050083,4.05336599 C20.339354,3.90802791 20.1406243,3.75213451 19.9163524,3.58988863 C19.6483257,3.39598913 19.3590267,3.20373946 19.0694869,3.02269845 C19.0508552,3.01104861 19.0326798,2.99972734 19.0149858,2.98874561 L17.0690367,4.27178899 C16.7638397,4.47301781 16.351842,4.37049687 16.1765445,4.04970246 L15.7376304,3.24648963 C15.6457486,3.1319184 15.5965395,2.98752304 15.6000196,2.839973 C15.5992989,2.74963046 15.6181522,2.65900957 15.6568098,2.57464475 C16.4378802,0.87006388 18.3027447,-0.0581820309 20.1336094,0.34629471 C21.3628559,0.617861274 22.3529111,1.44073725 22.8678985,2.51869753 C22.9690346,2.72942626 23.0525239,2.95109686 23.1163117,3.18201402 C23.2323273,3.60200058 23.2767113,4.02919012 23.2548388,4.44848303 L23.2530095,6.70015924 C23.2610896,6.8011601 23.2818445,6.96203704 23.3164382,7.12014661 C23.7519929,7.17543207 24.1000654,7.71578626 23.7258331,8.15522564 C23.6603223,8.23215129 23.5557983,8.33662214 23.4145393,8.44924232 C23.1757306,8.639635 22.9075672,8.78994369 22.6076614,8.8737925 C21.8466078,9.08657082 21.1026892,8.81577789 20.4878034,8.03429234 Z M8.18196091,5.66997353 C8.217776,4.75509384 8.74125748,3.8787954 9.51022096,3.24501525 C10.2085822,2.63798084 11.1206069,2.27037218 12.1184843,2.27000028 C12.1189895,2.27000011 12.1194947,2.27 12.12,2.27 C12.1205053,2.27 12.1210105,2.27000011 12.1215157,2.27000032 C13.1193931,2.27037218 14.0314178,2.63798084 14.729779,3.24501525 C15.4987425,3.8787954 16.022224,4.75509384 16.0580391,5.66997353 C16.0856852,5.85931673 16.1,6.05298667 16.1,6.25 C16.1,8.4480933 14.3180933,10.23 12.12,10.23 C9.9219067,10.23 8.14,8.4480933 8.14,6.25 C8.14,6.05298667 8.15431476,5.85931673 8.18196091,5.66997353 Z M9.39378481,6.395 C9.46915964,7.83532781 10.6609036,8.98 12.12,8.98 C13.5790964,8.98 14.7708404,7.83532781 14.8462152,6.395 L9.39378481,6.395 Z M21.915,22.375 L21.9150005,13.220809 C21.9132608,11.8767813 21.0091428,10.7014332 19.7105273,10.3550067 C18.4119117,10.0085802 17.0425015,10.5774282 16.3715513,11.7420051 C16.1992356,12.0410956 15.8170854,12.143867 15.5179949,11.9715513 C15.2189044,11.7992356 15.116133,11.4170854 15.2884487,11.1179949 C16.2417854,9.46327616 18.1875467,8.65501405 20.0327176,9.14724294 C21.8778885,9.63947184 23.1625275,11.309495 23.165,13.22 L23.165,23 C23.165,23.345178 22.885178,23.625 22.54,23.625 L17.27,23.625 C16.924822,23.625 16.645,23.345178 16.645,23 C16.645,22.654822 16.924822,22.375 17.27,22.375 L21.915,22.375 Z M14.905,22.375 L14.905,15.135 C14.905,13.4947143 13.5752857,12.165 11.935,12.165 C10.2947143,12.165 8.965,13.4947143 8.965,15.135 L8.965,22.375 L14.905,22.375 Z M7.715,23 L7.715,15.135 C7.715,12.8043584 9.60435836,10.915 11.935,10.915 C14.2656416,10.915 16.155,12.8043584 16.155,15.135 L16.155,23 C16.155,23.345178 15.875178,23.625 15.53,23.625 L8.34,23.625 C7.99482203,23.625 7.715,23.345178 7.715,23 Z M1.955,22.375 L6.6,22.375 C6.94517797,22.375 7.225,22.654822 7.225,23 C7.225,23.345178 6.94517797,23.625 6.6,23.625 L1.33,23.625 C0.984822031,23.625 0.705,23.345178 0.705,23 L0.705000524,13.219191 C0.707472514,11.309495 1.99211151,9.63947184 3.83728239,9.14724294 C5.68245328,8.65501405 7.62821457,9.46327616 8.58155129,11.1179949 C8.75386696,11.4170854 8.65109565,11.7992356 8.35200513,11.9715513 C8.05291461,12.143867 7.67076439,12.0410956 7.49844871,11.7420051 C6.82749846,10.5774282 5.45808827,10.0085802 4.15947274,10.3550067 C2.86085721,10.7014332 1.95673924,11.8767813 1.955,13.22 L1.955,22.375 Z"></path>
    </g>
</svg>