<?xml version="1.0"?>
<svg xmlns="http://www.w3.org/2000/svg" xmlns:xlink="http://www.w3.org/1999/xlink" version="1.1" id="Capa_1" x="0px" y="0px" viewBox="0 0 45.591 45.591" style="enable-background:new 0 0 45.591 45.591;" xml:space="preserve" width="512px" height="512px" class=""><g><g>
	<g>
		<path d="M0.902,19.63l11.795,8.569L8.192,42.065c-0.286,0.879-0.05,1.471,0.198,1.812    c0.559,0.771,1.663,0.917,2.61,0.228l11.795-8.57l11.795,8.57c0.415,0.301,0.839,0.454,1.261,0.454    c0.543,0,1.035-0.249,1.35-0.682c0.248-0.342,0.484-0.934,0.198-1.812l-4.506-13.867l11.795-8.569    c1.129-0.82,0.916-1.809,0.824-2.093s-0.501-1.208-1.896-1.208h-14.58L24.531,2.462c-0.432-1.327-1.438-1.43-1.735-1.43    c-0.298,0-1.304,0.103-1.736,1.431l-4.506,13.866H1.974c-1.396,0-1.805,0.925-1.896,1.208C-0.014,17.821-0.227,18.81,0.902,19.63z     M16.644,19.329c1.21,0,2.361-0.836,2.736-1.988l3.416-10.512l3.416,10.513c0.375,1.151,1.525,1.987,2.735,1.987H40l-8.942,6.497    c-0.98,0.712-1.419,2.065-1.045,3.216l3.416,10.512l-8.942-6.497c-0.47-0.342-1.071-0.53-1.691-0.53s-1.221,0.188-1.691,0.53    l-8.942,6.497l3.416-10.512c0.375-1.151-0.065-2.504-1.044-3.216l-8.942-6.497C5.593,19.329,16.644,19.329,16.644,19.329z" data-original="#010002" class="active-path" data-old_color="#ffff00" fill="#F6BA42"/>
	</g>
</g></g> </svg>
