<?xml version="1.0" encoding="iso-8859-1"?>
<!-- Generator: Adobe Illustrator 16.0.0, SVG Export Plug-In . SVG Version: 6.00 Build 0)  -->
<!DOCTYPE svg PUBLIC "-//W3C//DTD SVG 1.1//EN" "http://www.w3.org/Graphics/SVG/1.1/DTD/svg11.dtd">
<svg version="1.1" id="Capa_1" xmlns="http://www.w3.org/2000/svg" xmlns:xlink="http://www.w3.org/1999/xlink" x="0px" y="0px"
	 width="322.447px" height="322.447px" viewBox="0 0 322.447 322.447" style="enable-background:new 0 0 322.447 322.447;"
	 xml:space="preserve">
<g>
	<g>
		<path d="M0.904,120.517v192.368c0,5.279,4.284,9.562,9.562,9.562h74.913c5.278,0,9.562-4.283,9.562-9.562V120.517
			c0-19.766-16.094-35.859-35.859-35.859H36.763C16.988,84.657,0.904,100.75,0.904,120.517z M80.598,298.541
			c0,5.279-4.284,9.562-9.562,9.562H24.81c-5.279,0-9.562-4.283-9.562-9.562V120.517c0-11.858,9.658-21.516,21.516-21.516h22.319
			c11.857,0,21.516,9.658,21.516,21.516V298.541z"/>
		<path d="M114.2,81.281v231.604c0,5.279,4.284,9.562,9.562,9.562h74.913c5.278,0,9.562-4.283,9.562-9.562V81.281
			c0-19.766-16.094-35.859-35.859-35.859H150.06C130.294,45.422,114.2,61.516,114.2,81.281z M193.894,298.541
			c0,5.279-4.284,9.562-9.562,9.562h-46.225c-5.278,0-9.562-4.283-9.562-9.562V81.281c0-11.857,9.658-21.516,21.516-21.516h22.319
			c11.857,0,21.516,9.658,21.516,21.516V298.541z"/>
		<path d="M227.506,312.885c0,5.279,4.284,9.562,9.562,9.562h74.912c5.279,0,9.562-4.283,9.562-9.562V35.859
			C321.543,16.094,305.451,0,285.684,0h-22.318c-19.766,0-35.859,16.094-35.859,35.859V312.885z M307.2,298.541
			c0,5.279-4.283,9.562-9.562,9.562h-46.225c-5.278,0-9.562-4.283-9.562-9.562V35.859c0-11.857,9.658-21.516,21.516-21.516h22.318
			c11.858,0,21.516,9.658,21.516,21.516V298.541z"/>
	</g>
</g>
<g>
</g>
<g>
</g>
<g>
</g>
<g>
</g>
<g>
</g>
<g>
</g>
<g>
</g>
<g>
</g>
<g>
</g>
<g>
</g>
<g>
</g>
<g>
</g>
<g>
</g>
<g>
</g>
<g>
</g>
</svg>
