<svg xmlns="http://www.w3.org/2000/svg" viewBox="0 0 24 24">
    <path fill="#657786" d="M21 7.337h-3.93l.372-4.272a.751.751 0 0 0-.682-.812.752.752 0 0 0-.812.683l-.383 4.4h-6.32l.37-4.27a.75.75 0 0 0-.68-.813.751.751 0 0 0-.813.683l-.382 4.4H3.782a.75.75 0 0 0 0 1.5H7.61l-.55 6.327H3a.75.75 0 0 0 0 1.5h3.93l-.372 4.272a.751.751 0 0 0 .682.812l.066.003a.75.75 0 0 0 .746-.686l.383-4.4h6.32l-.37 4.27a.751.751 0 0 0 .682.813l.066.003a.75.75 0 0 0 .746-.686l.382-4.4h3.957c.413 0 .75-.337.75-.75s-.337-.75-.75-.75H16.39l.55-6.327H21a.75.75 0 0 0 0-1.5zm-6.115 7.826h-6.32l.55-6.326h6.32l-.55 6.326z"></path>
</svg>