<?xml version="1.0" encoding="UTF-8"?>
<!-- Generator: Adobe Illustrator 22.0.0, SVG Export Plug-In . SVG Version: 6.00 Build 0)  -->
<svg version="1.1" id="artwork" xmlns="http://www.w3.org/2000/svg" xmlns:xlink="http://www.w3.org/1999/xlink" x="0px" y="0px" width="134.9375px" height="40.0628014px" viewBox="0 0 134.9375 40.0628014" style="enable-background:new 0 0 134.9375 40.0628014;" xml:space="preserve">
<style type="text/css">
	.st0{fill:#FFFFFF;fill-opacity:0;}
	.st1{fill:#A6A6A6;}
	.st2{fill:#FFFFFF;stroke:#FFFFFF;stroke-width:0.2;stroke-miterlimit:10;}
	.st3{fill:#FFFFFF;}
	.st4{fill:url(#SVGID_1_);}
	.st5{fill:url(#SVGID_2_);}
	.st6{fill:url(#SVGID_3_);}
	.st7{fill:url(#SVGID_4_);}
	.st8{opacity:0.2;enable-background:new    ;}
	.st9{opacity:0.12;enable-background:new    ;}
	.st10{opacity:0.25;fill:#FFFFFF;enable-background:new    ;}
</style>
<g>
	<rect x="-10.0001001" y="-9.9998999" class="st0" width="155" height="60"/>
	<g>
		<path d="M130,40H5c-2.75,0-5-2.25-5-5V5c0-2.75,2.25-5,5-5h125c2.75,0,5,2.25,5,5v30C135,37.75,132.75,40,130,40z"/>
	</g>
	<g>
		<g>
			<path class="st1" d="M130,0.8c2.3159027,0,4.1999054,1.8842001,4.1999054,4.2001996v29.9999981     c0,2.3159027-1.8840027,4.2002029-4.1999054,4.2002029H5C2.684,39.2004013,0.8,37.3161011,0.8,35.0001984V5.0001998     C0.8,2.6842,2.684,0.8,5,0.8H130 M130,0.0002H5c-2.75,0-5,2.25-5,5v29.9999981c0,2.75,2.25,5,5,5h125c2.75,0,5-2.25,5-5     V5.0001998C135,2.2502,132.75,0.0002,130,0.0002L130,0.0002z"/>
		</g>
	</g>
	<g>
		<path class="st2" d="M47.4183998,10.2433004c0,0.8378992-0.2481003,1.5052996-0.7452011,2.0028992    c-0.5643997,0.5918007-1.2997971,0.8877001-2.2040977,0.8877001c-0.8661995,0-1.6025009-0.2997999-2.2080002-0.9004002    c-0.6063995-0.6005993-0.9090996-1.3451996-0.9090996-2.2333994c0-0.8887005,0.3027-1.6328001,0.9090996-2.2334003    C42.8666,7.1661,43.6029015,6.8657999,44.469101,6.8657999c0.4296989,0,0.8409004,0.0840001,1.2314987,0.2515001    c0.3906021,0.1679997,0.7041016,0.3910999,0.9384995,0.6704001l-0.527401,0.5278001    C45.7142982,7.8408999,45.1674004,7.6036,44.469101,7.6036c-0.6318016,0-1.1777,0.2217002-1.6385994,0.6659999    c-0.4610023,0.4443998-0.6914024,1.0209999-0.6914024,1.7305002s0.2304001,1.2860994,0.6914024,1.7305002    c0.4608994,0.4442997,1.0067978,0.6659994,1.6385994,0.6659994c0.6699982,0,1.2285995-0.2231998,1.6758003-0.6698999    c0.2901001-0.2910995,0.4580002-0.6957998,0.5028992-1.2153997H44.469101V9.7905998H47.3764    C47.4047012,9.9474001,47.4183998,10.0978003,47.4183998,10.2433004z"/>
		<path class="st2" d="M52.0276985,7.7374001h-2.732399v1.9022999h2.4639015v0.7208004h-2.4639015v1.9022999h2.732399v0.7372999    h-3.5028992v-6h3.5028992V7.7374001z"/>
		<path class="st2" d="M55.2787018,13.0001001h-0.7715034V7.7374001h-1.6757965V7.0001001h4.1230965v0.7372999h-1.6757965    V13.0001001z"/>
		<path class="st2" d="M59.9379005,13.0001001v-6h0.7705002v6H59.9379005z"/>
		<path class="st2" d="M64.1283035,13.0001001h-0.7715034V7.7374001h-1.6757011V7.0001001H65.8041v0.7372999h-1.6757965V13.0001001z    "/>
		<path class="st2" d="M73.6092987,12.2247c-0.5898972,0.6064997-1.3232956,0.9091997-2.2001953,0.9091997    c-0.8770065,0-1.610405-0.3027-2.1992035-0.9091997c-0.5898972-0.6058998-0.8837967-1.3476-0.8837967-2.2245998    s0.2938995-1.6187,0.8837967-2.2246003c0.5887985-0.6064997,1.322197-0.9096999,2.1992035-0.9096999    c0.8720932,0,1.6035004,0.3046999,2.1962967,0.9136C74.197197,8.3882999,74.493103,9.1285,74.493103,10.0001001    C74.493103,10.8771,74.1980972,11.6188002,73.6092987,12.2247z M69.7791977,11.7222996    c0.4443054,0.4497004,0.9873047,0.6743002,1.6299057,0.6743002c0.6425934,0,1.1864929-0.2245998,1.6298981-0.6743002    c0.4442978-0.4496994,0.6669998-1.0239992,0.6669998-1.7221994s-0.222702-1.2725-0.6669998-1.7222004    C72.5955963,7.8281999,72.0516968,7.6036,71.4091034,7.6036c-0.642601,0-1.1856003,0.2245998-1.6299057,0.6742997    c-0.4433975,0.4497004-0.6660004,1.0240002-0.6660004,1.7222004S69.3358002,11.2726002,69.7791977,11.7222996z"/>
		<path class="st2" d="M75.5751038,13.0001001v-6h0.9384995l2.9160004,4.6674995h0.0331955l-0.0331955-1.1562996v-3.5112h0.7714996    v6h-0.8047028l-3.0508041-4.8936005h-0.0331955l0.0331955,1.1563005v3.7372999H75.5751038z"/>
	</g>
	<path class="st3" d="M68.1358032,21.7516994c-2.3522034,0-4.2693024,1.7882004-4.2693024,4.2531013   c0,2.4487991,1.917099,4.2531986,4.2693024,4.2531986c2.3520966,0,4.2692947-1.8043995,4.2692947-4.2531986   C72.405098,23.5398998,70.4878998,21.7516994,68.1358032,21.7516994z M68.1358032,28.5825005   c-1.2888031,0-2.4005051-1.0633011-2.4005051-2.5776997c0-1.5305004,1.111702-2.5776005,2.4005051-2.5776005   c1.2887955,0,2.4003983,1.0471001,2.4003983,2.5776005C70.5362015,27.5191994,69.4245987,28.5825005,68.1358032,28.5825005z    M58.8223991,21.7516994c-2.3521996,0-4.2692986,1.7882004-4.2692986,4.2531013   c0,2.4487991,1.917099,4.2531986,4.2692986,4.2531986c2.3521004,0,4.2691994-1.8043995,4.2691994-4.2531986   C63.0915985,23.5398998,61.1744995,21.7516994,58.8223991,21.7516994z M58.8223991,28.5825005   c-1.2888985,0-2.4004974-1.0633011-2.4004974-2.5776997c0-1.5305004,1.111599-2.5776005,2.4004974-2.5776005   c1.2887993,0,2.4004021,1.0471001,2.4004021,2.5776005C61.2228012,27.5191994,60.1111984,28.5825005,58.8223991,28.5825005z    M47.7435989,23.0566998v1.8043003h4.3176994c-0.1289978,1.0149994-0.4671974,1.7560005-0.9827995,2.2716007   c-0.6282997,0.6282997-1.6110992,1.3209991-3.3348999,1.3209991c-2.6581993,0-4.7364006-2.1427002-4.7364006-4.8008995   s2.0782013-4.8008995,4.7364006-4.8008995c1.4339027,0,2.481102,0.5639,3.2544022,1.2887993l1.2726974-1.2726994   c-1.0793991-1.0310001-2.5131989-1.8205013-4.5270996-1.8205013c-3.6409988,0-6.7019997,2.9644012-6.7019997,6.6053009   c0,3.6409988,3.0610008,6.605299,6.7019997,6.605299c1.9654999,0,3.4477005-0.6443996,4.6076012-1.8526993   c1.1921997-1.1921997,1.5628014-2.8675995,1.5628014-4.2208996c0-0.4189014-0.0321999-0.8055-0.0968018-1.1277008H47.7435989z    M93.0519028,24.4582005c-0.3544083-0.9505005-1.4338074-2.706501-3.6410065-2.706501   c-2.1909943,0-4.0113983,1.7238007-4.0113983,4.2531013c0,2.3843994,1.8042984,4.2531986,4.2209015,4.2531986   c1.949295,0,3.077095-1.1921997,3.5441971-1.8848991l-1.4498978-0.9666004   c-0.4832993,0.7087994-1.1437988,1.1760006-2.0942993,1.1760006c-0.9505997,0-1.6271973-0.4350014-2.0622025-1.2888012   l5.6871033-2.3520985L93.0519028,24.4582005z M87.2521973,25.8759995c-0.0484009-1.6432991,1.2727051-2.480999,2.2231064-2.480999   c0.7411957,0,1.3694916,0.3704987,1.5788956,0.9021988L87.2521973,25.8759995z M82.6284027,30.0002003H84.4972V17.4986h-1.8687973   V30.0002003z M79.5673981,22.7021999h-0.0643997c-0.4188995-0.4993992-1.2243958-0.9505005-2.2393951-0.9505005   c-2.126503,0-4.0759048,1.8688011-4.0759048,4.2692013c0,2.3843994,1.9494019,4.2370987,4.0759048,4.2370987   c1.0149994,0,1.8204956-0.4510994,2.2393951-0.9665985h0.0643997v0.6121998c0,1.6271992-0.8698959,2.4970989-2.2715988,2.4970989   c-1.1436996,0-1.8526993-0.8216-2.142601-1.5144005l-1.6271973,0.6767006   c0.4672012,1.1277008,1.7077026,2.5131989,3.7697983,2.5131989c2.1911011,0,4.0438004-1.2887993,4.0438004-4.4303989v-7.6364002   h-1.7722015V22.7021999z M77.4247971,28.5825005c-1.2887955,0-2.3682938-1.079401-2.3682938-2.5615997   c0-1.4982014,1.0794983-2.5937004,2.3682938-2.5937004c1.2727051,0,2.2714996,1.095499,2.2714996,2.5937004   C79.6962967,27.5030994,78.6975021,28.5825005,77.4247971,28.5825005z M101.8057938,17.4988003h-4.471199v12.5014h1.8656998   v-4.7364006h2.6054993c2.0684052,0,4.1012039-1.4972992,4.1012039-3.8824997S103.8741989,17.4988003,101.8057938,17.4988003z    M101.8539963,23.5240002h-2.6537018v-4.2852993h2.6537018c1.3951035,0,2.1873016,1.1550999,2.1873016,2.1425991   C104.0412979,22.3502007,103.2490997,23.5240002,101.8539963,23.5240002z M113.3856964,21.7287006   c-1.3509979,0-2.7502975,0.5950985-3.3292999,1.9138985l1.656601,0.6916008   c0.3537979-0.6916008,1.0131989-0.9167995,1.7047958-0.9167995c0.965004,0,1.946106,0.5790005,1.962204,1.6082993v0.1287003   c-0.3377991-0.1930008-1.0615005-0.4825001-1.9460983-0.4825001c-1.785202,0-3.6026001,0.9811001-3.6026001,2.8146   c0,1.6725998,1.463501,2.7502003,3.1039963,2.7502003c1.2545013,0,1.9460983-0.5629005,2.3804016-1.2222996h0.0643005v0.9650002   h1.8013v-4.7928009C117.1812973,22.9671001,115.5246964,21.7287006,113.3856964,21.7287006z M113.1604996,28.5800991   c-0.6112061,0-1.4636002-0.3055-1.4636002-1.0614986c0-0.964901,1.0615005-1.3348999,1.9782944-1.3348999   c0.8202057,0,1.2061996,0.177,1.7048035,0.4181995C115.235199,27.7598991,114.2380981,28.5800991,113.1604996,28.5800991z    M123.7432938,22.0021l-2.1390991,5.4200001h-0.0643997L119.3203964,22.0021h-2.0103989l3.3292007,7.5751991l-1.8978043,4.2138004   h1.9459991l5.1306-11.7889996H123.7432938z M106.9362946,30.0002003h1.8656082v-12.5014h-1.8656082V30.0002003z"/>
	<g>
		
			<linearGradient id="SVGID_1_" gradientUnits="userSpaceOnUse" x1="21.7996368" y1="173.29039" x2="5.0172338" y2="156.5079803" gradientTransform="matrix(1 0 0 -1 0 182.0001984)">
			<stop offset="0" style="stop-color:#00A0FF"/>
			<stop offset="0.0065745" style="stop-color:#00A1FF"/>
			<stop offset="0.2601" style="stop-color:#00BEFF"/>
			<stop offset="0.5122" style="stop-color:#00D2FF"/>
			<stop offset="0.7604" style="stop-color:#00DFFF"/>
			<stop offset="1" style="stop-color:#00E3FF"/>
		</linearGradient>
		<path class="st4" d="M10.4352999,7.5380998c-0.2908001,0.3078003-0.4628,0.7857003-0.4628,1.4049001v22.1161003    c0,0.6197014,0.1719999,1.0971012,0.4628,1.4049015l0.0740004,0.0720978l12.3889999-12.3888988v-0.1460991v-0.1462002    L10.5093002,7.4654999L10.4352999,7.5380998z"/>
		
			<linearGradient id="SVGID_2_" gradientUnits="userSpaceOnUse" x1="33.8342743" y1="161.9986572" x2="9.6373777" y2="161.9986572" gradientTransform="matrix(1 0 0 -1 0 182.0001984)">
			<stop offset="0" style="stop-color:#FFE000"/>
			<stop offset="0.4087" style="stop-color:#FFBD00"/>
			<stop offset="0.7754" style="stop-color:#FFA500"/>
			<stop offset="1" style="stop-color:#FF9C00"/>
		</linearGradient>
		<path class="st5" d="M27.0277004,24.2786007l-4.1294003-4.1314011v-0.1460991v-0.1462002l4.1303997-4.1304007l0.0930996,0.0531006    l4.8927994,2.7800989c1.3976021,0.7940006,1.3976021,2.0932007,0,2.887701l-4.8927994,2.7800999L27.0277004,24.2786007z"/>
		
			<linearGradient id="SVGID_3_" gradientUnits="userSpaceOnUse" x1="24.8268509" y1="159.7039948" x2="2.0685737" y2="136.9457245" gradientTransform="matrix(1 0 0 -1 0 182.0001984)">
			<stop offset="0" style="stop-color:#FF3A44"/>
			<stop offset="1" style="stop-color:#C31162"/>
		</linearGradient>
		<path class="st6" d="M27.1217995,24.2250004l-4.2234993-4.2238998L10.4352999,32.4640007    c0.4608002,0.4876976,1.2212,0.5480995,2.0781002,0.0613976L27.1217995,24.2250004"/>
		
			<linearGradient id="SVGID_4_" gradientUnits="userSpaceOnUse" x1="7.2972283" y1="181.8239288" x2="17.4597511" y2="171.6613922" gradientTransform="matrix(1 0 0 -1 0 182.0001984)">
			<stop offset="0" style="stop-color:#32A071"/>
			<stop offset="0.0685" style="stop-color:#2DA771"/>
			<stop offset="0.4762" style="stop-color:#15CF74"/>
			<stop offset="0.8009" style="stop-color:#06E775"/>
			<stop offset="1" style="stop-color:#00F076"/>
		</linearGradient>
		<path class="st7" d="M27.1217995,15.7770996L12.5134001,7.4766998c-0.8569002-0.4867001-1.6173-0.4263-2.0781002,0.0613999    l12.4630003,12.4630013L27.1217995,15.7770996z"/>
		<g>
			<path class="st8" d="M27.0286999,24.132l-14.5152998,8.2472992c-0.8120003,0.4612999-1.5379,0.4305992-2.0036001,0.0107002l0,0     l-0.0745001,0.074501l0,0l0.0740004,0.0720978L10.5098,32.5360985c0.4657001,0.4199028,1.1915998,0.4511032,2.0036001-0.0107002     l14.6083994-8.3003979L27.0286999,24.132z"/>
			<path class="st9" d="M10.4352999,32.3184013c-0.2908001-0.3078995-0.4628-0.7858009-0.4628-1.4049015v0.146101     c0,0.6191998,0.1719999,1.0970001,0.4628,1.4048996l0.0745001-0.074501L10.4352999,32.3184013z"/>
		</g>
		<path class="st9" d="M32.0145988,21.2987995L27.0286999,24.132l0.0930996,0.0930004l4.8927994-2.7800999    c0.6986008-0.3970013,1.0483017-0.9202003,1.0483017-1.4434013l0,0    C33.0040016,20.4745998,32.6483994,20.9388008,32.0145988,21.2987995z"/>
		<path class="st10" d="M12.5134001,7.6233001l19.5011978,11.0799999c0.6338005,0.3599987,0.9894028,0.8237991,1.0483017,1.2978001    l0,0c0.0004997-0.523201-0.3493004-1.0468998-1.0483017-1.4439011L12.5134001,7.4772    c-1.3976002-0.7940998-2.5409002-0.1345-2.5409002,1.4662995v0.1461    C9.9724998,7.4889002,11.1157999,6.8292999,12.5134001,7.6233001z"/>
	</g>
</g>
</svg>