<?xml version="1.0" encoding="UTF-8"?>
<!-- Generator: Adobe Illustrator 21.0.0, SVG Export Plug-In . SVG Version: 6.00 Build 0)  -->
<!DOCTYPE svg PUBLIC "-//W3C//DTD SVG 1.1//EN" "http://www.w3.org/Graphics/SVG/1.1/DTD/svg11.dtd">
<svg version="1.1" id="Layer_1" xmlns="http://www.w3.org/2000/svg" xmlns:xlink="http://www.w3.org/1999/xlink" x="0px" y="0px" width="44.8333321px" height="40.8333321px" viewBox="0 0 44.8333321 40.8333321" style="enable-background:new 0 0 44.8333321 40.8333321;" xml:space="preserve">
<style type="text/css">
	.st0{fill:#353838;}
	.st1{fill:#FFFFFF;}
</style>
<path class="st0" d="M40.8333321,40.8333321H4c-2.2,0-4-1.7999992-4-4V4c0-2.2,1.8-4,4-4h36.8333321c2.2000008,0,4,1.8,4,4  v32.8333321C44.8333321,39.0333328,43.0333328,40.8333321,40.8333321,40.8333321z"/>
<path class="st1" d="M27.7618618,21.4338112l0.5315151-4.1217136h-4.0815392v-2.6315794  c0-1.1933222,0.3327179-2.0066071,2.0437679-2.0066071l2.1808472-0.0012207V8.9864492  c-0.3765564-0.0503006-1.6710548-0.1624994-3.1797886-0.1624994c-3.1471462,0-5.3003159,1.9212294-5.3003159,5.4488134v3.0393343  h-3.5594673v4.1217136h3.5594673v10.575573h4.2554893v-10.575573H27.7618618z"/>
</svg>