<?xml version="1.0" encoding="UTF-8"?>
<!-- Generator: Adobe Illustrator 21.0.0, SVG Export Plug-In . SVG Version: 6.00 Build 0)  -->
<!DOCTYPE svg PUBLIC "-//W3C//DTD SVG 1.1//EN" "http://www.w3.org/Graphics/SVG/1.1/DTD/svg11.dtd">
<svg version="1.1" id="Layer_1" xmlns="http://www.w3.org/2000/svg" xmlns:xlink="http://www.w3.org/1999/xlink" x="0px" y="0px" width="44.8333321px" height="40.8333321px" viewBox="0 0 44.8333321 40.8333321" style="enable-background:new 0 0 44.8333321 40.8333321;" xml:space="preserve">
<style type="text/css">
	.st0{fill:#353838;}
	.st1{fill:#FFFFFF;}
</style>
<path class="st0" d="M40.8333321,40.8333321H4c-2.2,0-4-1.7999992-4-4V4c0-2.2,1.8-4,4-4h36.8333321c2.2000008,0,4,1.8,4,4  v32.8333321C44.8333321,39.0333328,43.0333328,40.8333321,40.8333321,40.8333321z"/>
<path class="st1" d="M33.7302513,13.3991747c-0.832634,0.3694525-1.7276878,0.6190577-2.666254,0.730979  c0.9583836-0.5746498,1.695528-1.483757,2.0412464-2.5681562c-0.8959503,0.5319529-1.8891048,0.9187918-2.9468861,1.1270504  c-0.8475399-0.9029818-2.0544434-1.4664173-3.389349-1.4664173c-2.5637875,0-4.642416,2.0789003-4.642416,4.6422367  c0,0.3645887,0.0411205,0.718009,0.1198483,1.0575552c-3.857748-0.1928558-7.2779064-2.0407963-9.5683088-4.8506756  c-0.3991337,0.6867962-0.6280661,1.483757-0.6280661,2.33463c0,1.6100016,0.8191652,3.0319662,2.064353,3.8636961  c-0.7604799-0.02351-1.4761009-0.2335701-2.1021852-0.5807743v0.0584602c0,2.2488766,1.6005478,4.1254177,3.7234011,4.5520687  c-0.3890457,0.105526-0.8002939,0.1636257-1.2232084,0.1636257c-0.2984266,0-0.590229-0.0299492-0.8730316-0.0844479  c0.5904579,1.8446541,2.3047247,3.1861343,4.3358421,3.224823c-1.587801,1.2447357-3.5892344,1.9871559-5.7657337,1.9871559  c-0.3740921,0-0.7433195-0.0228806-1.1064224-0.0650806c2.0542641,1.3159866,4.4944201,2.0847988,7.1171665,2.0847988  c8.5382233,0,13.2074833-7.072485,13.2074833-13.2077122c0-0.2005577-0.0052643-0.4008904-0.0127468-0.6014919  C32.3201294,15.1481657,33.1065521,14.3304863,33.7302513,13.3991747z"/>
</svg>