<?xml version="1.0" encoding="UTF-8"?>
<!-- Generator: Adobe Illustrator 21.0.0, SVG Export Plug-In . SVG Version: 6.00 Build 0)  -->
<!DOCTYPE svg PUBLIC "-//W3C//DTD SVG 1.1//EN" "http://www.w3.org/Graphics/SVG/1.1/DTD/svg11.dtd">
<svg version="1.1" id="Layer_1" xmlns="http://www.w3.org/2000/svg" xmlns:xlink="http://www.w3.org/1999/xlink" x="0px" y="0px" width="44.8333321px" height="40.8333321px" viewBox="0 0 44.8333321 40.8333321" style="enable-background:new 0 0 44.8333321 40.8333321;" xml:space="preserve">
<style type="text/css">
	.st0{fill:#353838;}
	.st1{fill:#FFFFFF;}
</style>
<path class="st0" d="M40.8333321,40.8333321H4c-2.2,0-4-1.7999992-4-4V4c0-2.2,1.8-4,4-4h36.8333321c2.2000008,0,4,1.8,4,4  v32.8333321C44.8333321,39.0333328,43.0333328,40.8333321,40.8333321,40.8333321z"/>
<g>
	<path class="st1" d="M22.4166679,11.3466234c2.9540749,0,3.3039761,0.0112648,4.4705772,0.0644913   c1.0786667,0.049222,1.6644878,0.2294416,2.0543385,0.380949c0.5164051,0.2006893,0.8849564,0.4404564,1.2720833,0.8275843   c0.387146,0.387146,0.6269131,0.7556973,0.8276024,1.2721062c0.1515064,0.3898468,0.3317318,0.975666,0.380949,2.0543165   c0.0532265,1.1666193,0.0644913,1.5165186,0.0644913,4.4705954s-0.0112648,3.303978-0.0644913,4.4705791   c-0.0492172,1.0786686-0.2294426,1.6644878-0.380949,2.0543385c-0.2006893,0.5164051-0.4404564,0.8849564-0.8275833,1.2720833   c-0.387146,0.387146-0.7556973,0.6269131-1.2721024,0.8276024c-0.3898506,0.1515083-0.9756718,0.3317318-2.0543385,0.380949   c-1.1664333,0.0532265-1.516304,0.0644913-4.4705772,0.0644913s-3.3041439-0.0112648-4.4705791-0.0644913   c-1.0786686-0.0492172-1.6644878-0.2294407-2.0543337-0.380949c-0.5164099-0.2006893-0.8849611-0.4404564-1.272089-0.8275833   c-0.3871374-0.3871384-0.6269121-0.7556973-0.8276024-1.2721024c-0.1515074-0.3898506-0.331727-0.9756699-0.380949-2.0543213   c-0.0532265-1.1666183-0.0644913-1.5165195-0.0644913-4.4705963s0.0112648-3.3039761,0.0644913-4.4705782   c0.049222-1.0786676,0.2294416-1.6644869,0.380949-2.0543337c0.2006903-0.5164089,0.4404564-0.8849602,0.8275852-1.272089   c0.387145-0.387145,0.7556963-0.6269121,1.2721062-0.8276014c0.3898458-0.1515074,0.9756651-0.331727,2.0543165-0.380949   C19.11269,11.3578882,19.4625893,11.3466234,22.4166679,11.3466234 M22.4166679,9.3532066   c-3.0046616,0-3.3814163,0.0127268-4.5614471,0.0665636c-1.177599,0.0537319-1.9818096,0.2407551-2.6855536,0.5142536   c-0.7275124,0.2827301-1.3445072,0.6610174-1.9595709,1.2760725c-0.6150551,0.6150627-0.9933424,1.2320585-1.2760715,1.9595699   c-0.2734995,0.7037439-0.4605217,1.5079556-0.5142536,2.6855545c-0.0538378,1.1800308-0.0665646,1.556778-0.0665646,4.5614452   c0,3.0046597,0.0127268,3.3814163,0.0665646,4.5614471c0.0537319,1.177597,0.2407541,1.9818058,0.5142536,2.6855526   c0.2827291,0.7275028,0.6610165,1.3445072,1.2760715,1.9595718c0.6150637,0.6150551,1.2320585,0.9933414,1.9595709,1.2760715   c0.7037439,0.2734985,1.5079546,0.4605217,2.6855536,0.5142536c1.1800308,0.0538502,1.5567856,0.0665646,4.5614471,0.0665646   c3.0046577,0,3.3814144-0.0127144,4.5614452-0.0665646c1.177597-0.0537319,1.9818058-0.2407551,2.6855526-0.5142536   c0.7275124-0.2827301,1.3445072-0.6610165,1.9595718-1.2760715c0.6150551-0.6150646,0.9933434-1.2320595,1.2760735-1.9595718   c0.2734985-0.7037468,0.4605179-1.5079556,0.5142517-2.6855526c0.0538368-1.1800308,0.0665627-1.5567875,0.0665627-4.5614471   s-0.0127258-3.3814144-0.0665627-4.5614452c-0.0537338-1.177599-0.2407532-1.9818106-0.5142517-2.6855545   c-0.2827301-0.7275114-0.6610184-1.3445072-1.2760735-1.9595699c-0.6150646-0.6150551-1.2320595-0.9933424-1.9595718-1.2760725   c-0.7037468-0.2734985-1.5079556-0.4605217-2.6855526-0.5142536C25.7980824,9.3659334,25.4213257,9.3532066,22.4166679,9.3532066   L22.4166679,9.3532066z"/>
	<path class="st1" d="M22.4166679,14.7354298c-3.1376629,0-5.6812382,2.5435753-5.6812382,5.6812363   s2.5435753,5.6812325,5.6812382,5.6812325c3.1376591,0,5.6812363-2.5435715,5.6812363-5.6812325   S25.554327,14.7354298,22.4166679,14.7354298z M22.4166679,24.1044865c-2.0367279,0-3.6878204-1.6510925-3.6878204-3.6878204   s1.6510925-3.6878185,3.6878204-3.6878185s3.6878185,1.6510925,3.6878185,3.6878185S24.4533939,24.1044865,22.4166679,24.1044865z"/>
	<circle class="st1" cx="28.3223705" cy="14.5109625" r="1.3276148"/>
</g>
</svg>