<?xml version="1.0" encoding="UTF-8" standalone="no"?>
<svg xmlns:dc="http://purl.org/dc/elements/1.1/" xmlns:cc="http://creativecommons.org/ns#" xmlns:rdf="http://www.w3.org/1999/02/22-rdf-syntax-ns#" xmlns:svg="http://www.w3.org/2000/svg" xmlns="http://www.w3.org/2000/svg" preserveAspectRatio="xMidYMid meet" xml:space="preserve" y="0px" x="0px" viewBox="0 0 100 100" id="icons" version="1.1">
  <defs>
    <style>

      svg &gt; g.mono-target &gt; *,
      svg &gt; g.target * {
          display: none;
      }
      svg &gt; g.target:target &gt; * {
          display: inherit;
      }
      svg &gt; g.mono-target:target &gt; * {
        display: inherit;
        fill: white;
      }
      svg path:target,
      svg g:target {
        display: inherit;
      }

  	  #hamburger-icon:target {
  	  	fill: #02a388; /* $href-color */
  	  }
      #account-icon:target {
        fill: #02a388; /* $href-color */
      }
  	  #caron-colored:target {
  	  	fill: #02a388; /* $href-color */
  	  }
  	  #caron:target {
    	  fill: #888888 !important;
  	  }

      /*  In order to colorize the social icons in Safari, we need to keep the style
          properties away from those elements and into stylesheets instead. If the
          colors below need to be changed, please make the corresponding change in
          stylesheets/unisporkal_engine/istock/modules/_full_footer.scss */

      #facebook:target {
        fill: #3d5a98; /* $facebook-primary */
      }
      #twitter:target {
        fill: #55acee; /* $twitter-primary */
      }
      #instagram:target {
        fill: #517fa4; /* $instagram-primary */
      }
      #googleplus:target {
        fill: #dd4b39; /* $googleplus-primary */
      }
      .st0{fill:#FFFFFF;}
      .st1{fill:#FFFFFF;stroke:#FFFFFF;stroke-width:2;stroke-miterlimit:10;}
      .st2{fill:#6C6C6C;}
    </style>
  </defs>
  <g class="mono-target" id="facebook-mono">
    <path class="icon" id="facebook" d="m 57.761045,99.955872 0,-45.589939 15.306967,0 2.28915,-17.77263 -17.596116,0 0,-11.346461 c 0,-5.140934 1.434166,-8.649126 8.80909,-8.649126 l 9.404822,0 0,-15.897181 C 74.347729,0.479894 68.765513,0 62.267638,0 48.698219,0 39.41475,8.329196 39.41475,23.498262 l 0,13.128138 -15.389707,0 0,17.761597 15.334547,0 0,45.612003 18.36836,0 z"/>
  </g>
  <g class="mono-target" id="twitter-mono">
    <path class="icon" id="twitter" d="m 99.9496,19.024698 c -3.67944,1.628024 -7.63609,2.731855 -11.78428,3.225806 4.23387,-2.535282 7.48992,-6.552419 9.02218,-11.340726 -3.96673,2.34375 -8.35685,4.05242 -13.029234,4.969758 C 80.428427,11.847278 75.085685,9.37752 69.188508,9.37752 c -11.290323,0 -20.514113,9.173387 -20.514113,20.514113 0,1.612903 0.201613,3.175403 0.554436,4.6875 C 32.19254,33.722278 17.071573,25.556956 6.940524,13.11744 5.176411,16.141633 4.168347,19.669859 4.168347,23.424899 c 0,7.116936 3.629032,13.407258 9.122984,17.086694 C 9.914315,40.410786 6.779234,39.483367 4.017137,37.941028 l 0,0.262097 c 0,9.939516 7.071573,18.230847 16.456653,20.110887 -1.72379,0.473791 -3.538306,0.720766 -5.408266,0.720766 -1.320564,0 -2.605847,-0.131048 -3.860887,-0.372984 2.610887,8.145162 10.181452,14.077621 19.168347,14.243952 -7.02621,5.509073 -15.877016,8.790323 -25.483871,8.790323 -1.663307,0 -3.27621,-0.100807 -4.889113,-0.282258 9.072581,5.816532 19.858871,9.208669 31.451613,9.208669 37.736895,0 58.366937,-31.25 58.366937,-58.366935 0,-0.882057 -0.0151,-1.764113 -0.0504,-2.64617 C 93.7752,26.71623 97.25302,23.107359 100,18.989415 Z"/>
  </g>
  <g class="mono-target" id="instagram-mono">
    <path class="icon" id="instagram" d="m 12.83521,0 74.329575,0 c 7.05924,0 12.83516,5.775621 12.83516,12.835155 l 0,74.329678 C 99.999945,94.224379 94.224025,100 87.164785,100 L 12.83521,100 C 5.775876,100 5.5e-5,94.224379 5.5e-5,87.164833 l 0,-74.329678 C 5.5e-5,5.775621 5.775876,0 12.83521,0 l 0,0 z m 60.010549,11.110539 c -2.476282,0 -4.50192,2.02555 -4.50192,4.501927 l 0,10.775986 c 0,2.476383 2.025638,4.501921 4.50192,4.501921 l 11.302885,0 c 2.476081,0 4.501611,-2.025538 4.501611,-4.501921 l 0,-10.775986 c 0,-2.476377 -2.02553,-4.501927 -4.501611,-4.501927 l -11.302885,0 0,0 z m 15.851606,31.178544 -8.80179,0 c 0.832986,2.719568 1.282305,5.598765 1.282305,8.580172 0,16.633333 -13.916509,30.117143 -31.08273,30.117143 -17.166309,0 -31.082412,-13.48381 -31.082412,-30.117143 0,-2.981407 0.449325,-5.860604 1.282205,-8.580172 l -9.183948,0 0,42.241771 c 0,2.186298 1.788736,3.975028 3.975122,3.975028 l 69.636119,0 c 2.186399,0 3.975129,-1.78873 3.975129,-3.975028 l 0,-42.241771 0,0 z M 50.09515,30.323372 c -11.091792,0 -20.083701,8.712448 -20.083701,19.459669 0,10.747628 8.991909,19.460076 20.083701,19.460076 11.09211,0 20.083613,-8.712448 20.083613,-19.460076 0,-10.747221 -8.991503,-19.459669 -20.083613,-19.459669 z"/>
  </g>
  <g class="mono-target" id="googleplus-mono">
    <path class="icon" id="googleplus" d="m 47.857433,4.625411 c 0.830498,0.519061 1.753273,1.257281 2.785628,2.249265 0.980448,1.02082 1.960897,2.283868 2.906742,3.777611 0.905473,1.407232 1.712901,3.068227 2.422285,4.994521 0.576734,1.960897 0.865101,4.210162 0.865101,6.747794 -0.08074,4.729223 -1.118865,8.477997 -3.114366,11.303997 -0.980449,1.384162 -2.018571,2.641444 -3.114366,3.794913 -1.211143,1.153469 -2.503028,2.32424 -3.864122,3.51808 -0.790126,0.807429 -1.516812,1.730204 -2.180056,2.768326 -0.778592,1.061192 -1.170771,2.306938 -1.170771,3.708403 0,1.372628 0.403714,2.503028 1.211142,3.402734 0.692082,0.8478 1.384163,1.597554 2.018571,2.23773 l 4.47546,3.656497 c 2.768326,2.278101 5.190611,4.763827 7.284157,7.497549 1.960897,2.768325 2.999017,6.401753 3.073997,10.900282 0,6.372917 -2.826001,12.007613 -8.431861,16.927159 C 47.199955,97.202838 38.796933,99.82698 27.804373,100 18.611225,99.925025 11.742317,97.964127 7.203416,94.117308 2.635678,90.541554 0.340275,86.262184 0.340275,81.256128 c 0,-2.422285 0.749755,-5.132938 2.249265,-8.108888 1.441836,-2.987485 4.054443,-5.611627 7.843589,-7.872426 4.250534,-2.422285 8.720226,-4.037142 13.403311,-4.861872 4.625411,-0.674779 8.477997,-1.061192 11.53469,-1.153469 -0.945844,-1.239979 -1.787877,-2.572236 -2.537632,-3.979468 -0.865101,-1.384163 -1.286118,-3.039391 -1.286118,-4.959917 0,-1.153469 0.161486,-2.133918 0.490225,-2.906742 l 0.807428,-2.249265 c -1.49951,0.17302 -2.906742,0.253763 -4.221697,0.253763 C 21.627546,45.331334 16.298519,43.128208 12.630488,38.820001 8.783669,34.800162 6.863143,30.122844 6.863143,24.78805 c 0,-6.459427 2.710652,-12.29598 8.160793,-17.555799 C 18.755409,4.158256 22.636832,2.156987 26.673974,1.211143 30.653442,0.403714 34.379147,0 37.862623,0 l 26.270262,0 -8.108891,4.729223 -8.137724,0 z m 5.075264,75.609897 c 0,-3.327759 -1.095796,-6.228733 -3.25855,-8.708692 -2.306938,-2.347309 -5.899995,-5.230982 -10.796471,-8.651018 -0.836265,-0.08651 -1.816714,-0.126881 -2.941346,-0.126881 -0.674779,-0.08074 -2.393448,0 -5.150239,0.253763 -2.710652,0.386412 -5.502048,1.003518 -8.345349,1.857085 -0.669012,0.259531 -1.614857,0.645943 -2.825999,1.153469 -1.211143,0.559433 -2.439587,1.349559 -3.702636,2.376146 -1.211142,1.066959 -2.23773,2.393449 -3.068227,3.979469 -0.968914,1.660995 -1.441837,3.673799 -1.441837,6.021108 0,4.613876 2.076245,8.420324 6.269105,11.407809 3.979468,2.987485 9.458446,4.527366 16.321587,4.613876 6.228733,-0.08651 10.957956,-1.453371 14.187669,-4.094815 3.17204,-2.618375 4.786897,-5.969202 4.786897,-10.075552 z M 34.621375,41.744045 c 3.460408,-0.132649 6.34408,-1.372628 8.639484,-3.731472 1.113097,-1.67253 1.828248,-3.402734 2.145452,-5.132938 0.190322,-1.787877 0.288367,-3.229713 0.288367,-4.440855 0,-5.190611 -1.326489,-10.438895 -3.979468,-15.68718 -1.239979,-2.537631 -2.872138,-4.602341 -4.902243,-6.171059 -2.076245,-1.49951 -4.452391,-2.306938 -7.139974,-2.364612 -3.564219,0.05767 -6.5171,1.49951 -8.881712,4.279371 -1.989734,2.900974 -2.941346,6.153757 -2.854836,9.746813 0,4.752293 1.384163,9.68914 4.169791,14.822078 1.349559,2.404982 3.079763,4.440855 5.21368,6.113386 2.133918,1.67253 4.556203,2.503027 7.295692,2.503027 z m 65.03835,-27.510237 -13.78395,0 0,-13.783955 -6.67282,0 0,13.783955 -13.78396,0 0,6.690121 13.78396,0 0,13.783955 6.67282,0 0,-13.783955 13.78395,0 z"/>
  </g>
  <g class="target" id="istock-logo">
    <path fill="white" d="m 0.7168875,67.91856 0.97054,0 0,-6.73095 -0.984174,0 0,-1.03585 2.10972,0 0,3.00025 c 0.662604,-0.70588 1.429534,-1.04118 2.375869,-1.04118 2.010635,0 3.448365,1.53544 3.448365,3.49993 0,1.98475 -1.46767,3.5108 -3.486499,3.5108 -0.908201,0 -1.615559,-0.32048 -2.317284,-1.03465 l 0,0.88794 -2.116537,0 0,-1.05629 z m 4.412185,-4.71893 c -1.24637,0 -2.316099,1.0304 -2.316099,2.44778 0,1.32906 1.069729,2.38111 2.2998,2.38111 1.254374,0 2.321434,-1.00314 2.321434,-2.44226 0,-1.39278 -1.06706,-2.38663 -2.305135,-2.38663 z m 4.9674955,6.88032 1.04395,0 0.52271,-1.30594 -2.1613905,-5.44941 -0.88103,0 0,-1.05363 2.9772205,0 0,1.05363 -0.91907,0 1.56399,3.98036 1.57476,-3.98036 -0.91502,0 0,-1.05363 2.96497,0 0,1.05363 -0.86889,0 -2.68123,6.75535 0.92865,0 0,1.05086 -3.149621,0 0,-1.05086 z m 12.754749,-5.52548 5.35971,0 0,4.42038 -0.95296,0 0,-1.39278 c -0.96935,1.0561 -2.07583,1.56656 -3.40904,1.56656 -2.64459,0 -4.52076,-2.06625 -4.52076,-4.64573 0,-2.38387 1.91421,-4.52896 4.63615,-4.52896 1.01697,0 1.82737,0.28373 2.685481,0.92045 l 0,-0.74263 0.965209,0 0,2.36639 -1.09146,0 c -0.75893,-0.87975 -1.58583,-1.30614 -2.62849,-1.30614 -1.88566,0 -3.27715,1.5301 -3.27715,3.33021 0,1.93456 1.4405,3.38731 3.260951,3.38731 1.369859,0 2.59855,-0.90415 3.007059,-2.31077 l -4.0347,0 0,-1.06429 z m 13.174121,2.29713 c -0.57013,1.46352 -1.8002,2.28073 -3.27449,2.28073 -1.96182,0 -3.49993,-1.55026 -3.49993,-3.50132 0,-1.99294 1.62504,-3.53925 3.463279,-3.53925 1.959061,0 3.522951,1.52862 3.522951,3.58964 0,0.10037 0,0.22534 -0.023,0.38549 l -5.73591,0 c 0.18603,1.19332 1.13494,1.97526 2.257611,1.97526 0.84725,0 1.564,-0.40989 1.973979,-1.19055 l 1.315531,0 z m -1.027651,-1.73767 c -0.301409,-1.24232 -1.145789,-1.94967 -2.246839,-1.94967 -1.11606,0 -2.052711,0.75754 -2.27263,1.94967 l 4.519469,0 z m 2.62829,-1.80574 -1.033169,0 0,-1.03722 1.033169,0 0,-2.11921 1.12674,0 0,2.11921 0.99246,0 0,1.03722 -0.99246,0 0,4.61037 0.99246,0 0,1.05629 -2.1192,0 0,-5.66666 z m 3.756501,0 -1.02765,0 0,-1.03722 1.02765,0 0,-2.11921 1.130879,0 0,2.11921 0.987041,0 0,1.03722 -0.987041,0 0,4.61037 0.987041,0 0,1.05629 -2.11792,0 0,-5.66666 z m 4.26281,6.77176 1.04404,0 0.5241,-1.30594 -2.16406,-5.44941 -0.87837,0 0,-1.05363 2.97722,0 0,1.05363 -0.92045,0 1.56261,3.98036 1.58296,-3.98036 -0.92184,0 0,-1.05363 2.97188,0 0,1.05363 -0.87293,0 -2.68538,6.75535 0.93684,0 0,1.05086 -3.15662,0 0,-1.05086 z m 9.1735,-2.17344 0.98023,0 0,-6.6945 -0.98023,0 0,-1.06025 3.21482,0 0,1.06025 -1.00877,0 0,6.6945 1.00877,0 0,1.06834 -3.21482,0 0,-1.06834 z m 4.15553,0.0121 0.95453,0 0,-4.61037 -0.94495,0 0,-1.03722 2.06082,0 0,0.95306 c 0.41275,-0.72218 0.99365,-1.06302 1.82599,-1.06302 0.98022,0 1.69567,0.46847 2.104179,1.33459 0.521331,-0.91501 1.159431,-1.34674 2.06358,-1.34674 1.652321,0 2.40838,1.20142 2.40838,2.86173 l 0,2.90797 0.967971,0 0,1.05629 -3.05586,0 0,-1.05629 0.9571,0 0,-2.97041 c 0,-1.1295 -0.521331,-1.7349 -1.448491,-1.7349 -1.06855,0 -1.640069,0.79281 -1.640069,2.37301 l 0,2.3323 0.972029,0 0,1.05629 -3.03284,0 0,-1.05629 0.96659,0 0,-2.22373 c 0,-1.57337 -0.17378,-2.48158 -1.48792,-2.48158 -1.01688,0 -1.60064,0.79281 -1.60064,2.37301 l 0,2.3323 0.970641,0 0,1.05629 -3.04104,0 0,-1.05629 z m 17.59184,0.16834 c -0.70588,0.71417 -1.41729,1.03466 -2.31057,1.03466 -2.03375,0 -3.4864,-1.52605 -3.4864,-3.5108 0,-1.96449 1.401079,-3.49173 3.44016,-3.49173 0.95444,0 1.7189,0.31218 2.38535,1.03297 l 0,-0.88103 2.06764,0 0,1.03722 -0.95167,0 0,4.59831 0.96263,0 0,1.06835 -2.10714,0 0,-0.88795 z m -2.29437,-4.88728 c -1.24074,0 -2.31067,0.99386 -2.31067,2.38664 0,1.43912 1.06993,2.44225 2.31749,2.44225 1.2273,0 2.29713,-1.04384 2.29713,-2.3811 0,-1.41738 -1.06983,-2.44779 -2.30395,-2.44779 z m 6.65636,6.16892 c 0.2376,0.71141 0.86888,1.09156 1.81384,1.09156 1.1947,0 2.19803,-0.85801 2.24674,-2.0948 l 0.0109,-0.33679 c -0.66923,0.7455 -1.40366,1.07942 -2.32954,1.07942 -1.98614,0 -3.44974,-1.50156 -3.44974,-3.49717 0,-1.92518 1.4146,-3.49993 3.4117,-3.49993 0.96392,0 1.73628,0.34616 2.38259,1.10242 l 0,-0.94228 2.07168,0 0,1.05362 -0.95434,0 0,4.54783 c 0,2.30256 -1.33043,3.57057 -3.38997,3.57057 -1.62781,0 -2.69072,-0.6951 -3.12393,-2.07445 l 1.31009,0 z m 4.08647,-3.71026 c 0,-1.41323 -1.05629,-2.45866 -2.29842,-2.45866 -1.23678,0 -2.30513,1.00463 -2.30513,2.3975 0,1.45256 1.07792,2.44503 2.30513,2.44503 1.22997,0 2.29842,-1.05748 2.29842,-2.38387 z m 9.26844,1.19331 c -0.57172,1.46352 -1.79754,2.28074 -3.27725,2.28074 -1.96045,0 -3.50408,-1.55026 -3.50408,-3.50132 0,-1.99295 1.63048,-3.53925 3.46872,-3.53925 1.96034,0 3.5257,1.52862 3.5257,3.58964 0,0.10037 0,0.22534 -0.0245,0.38548 l -5.73997,0 c 0.19147,1.19332 1.13494,1.97527 2.26187,1.97527 0.84705,0 1.56398,-0.40989 1.97111,-1.19056 l 1.31839,0 z m -1.03041,-1.73766 c -0.29598,-1.24232 -1.14175,-1.94968 -2.24684,-1.94968 -1.11607,0 -2.04876,0.75755 -2.27412,1.94968 l 4.52096,0 z m 1.93317,1.74853 1.12002,0 c 0,0.64621 0.5565,1.29508 1.38883,1.29508 0.70459,0 1.11992,-0.37739 1.11992,-1.02498 0,-0.71536 -0.53754,-0.97883 -1.71584,-1.21643 -1.50016,-0.30537 -1.82342,-1.08741 -1.82342,-1.8992 0,-1.11596 0.79015,-1.93466 2.05816,-1.93466 0.54988,0 0.98022,0.1887 1.3414,0.58239 l 0,-0.40723 0.92995,0 0,1.78657 -1.03318,0 c -0.15619,-0.65697 -0.529431,-0.95295 -1.163481,-0.95295 -0.619049,0 -0.967969,0.30675 -0.967969,0.83075 0,0.74262 0.60698,0.88251 1.650819,1.14995 1.30327,0.3516 1.908871,0.89733 1.908871,1.98899 0,1.25437 -0.871641,2.08789 -2.25771,2.08789 -0.634061,0 -1.114571,-0.19946 -1.538201,-0.6626 l 0,0.49702 -1.01817,0 0,-2.12059 z"/>
    <path id="istock-logo-mobile" fill="white" d="m 5.5548975,54.859 -4.813308,0 0,-17.96837 4.813308,0 0,17.96837 z m 4.6206105,-6.92811 c 1.48307,1.62843 3.74136,2.85254 6.11148,2.85254 2.22269,0 3.778929,-1.37233 3.778929,-3.26091 0,-3.3326 -4.814199,-3.74047 -8.296589,-5.77677 -2.0368005,-1.18694 -3.6691805,-2.96467 -3.6691805,-5.89334 0,-4.62929 4.2633405,-7.29545 8.5585195,-7.29545 2.629081,0 5.07424,0.63025 7.52039,2.44516 l -2.59249,3.70329 c -1.0401,-0.96297 -2.78026,-1.7016 -4.48492,-1.7016 -1.88651,0 -3.99944,0.81229 -3.99944,2.8125 0,4.1873 11.96577,2.88864 11.96577,11.63353 0,4.59123 -4.11413,7.77699 -8.78099,7.77699 -3.48141,0 -6.7037595,-1.44165 -9.3713995,-3.88967 l 3.2599195,-3.40627 z m 29.85031,6.92811 c -0.62887,0.2205 -2.07624,0.36783 -3.00076,0.36783 -2.89011,0 -4.99919,-0.96298 -6.22419,-2.59249 -0.92541,-1.22204 -1.33377,-2.813 -1.33377,-5.37137 l 0,-6.29727 -5.000091,0 0,-4.07507 5.000091,0 0,-5.00107 4.816169,0 0,5.00107 5.92745,0 0,4.07507 -5.92745,0 0,6.85109 c 0,1.11563 0.18391,1.77922 0.593261,2.26263 0.47858,0.55658 1.25676,0.88793 2.44221,0.88793 0.705,0 1.63336,-0.10789 1.96658,-0.18392 l 0.7405,4.07557 z M 50.704957,36.52033 c 5.44316,0 9.5563,4.1868 9.5563,9.37327 0,5.18548 -4.11314,9.33323 -9.5563,9.33323 -5.444049,0 -9.55818,-4.14775 -9.55818,-9.33323 0,-5.18647 4.114131,-9.37327 9.55818,-9.37327 z m 0,14.2631 c 2.814971,0 4.73914,-2.1861 4.73914,-4.88983 0,-2.70521 -1.924169,-4.9279 -4.73914,-4.9279 -2.81684,0 -4.74102,2.22269 -4.74102,4.9279 0,2.70373 1.92418,4.88983 4.74102,4.88983 z m 28.572451,0.40728 c -2.11391,2.81595 -4.78244,4.03612 -8.15123,4.03612 -5.55568,0 -9.63223,-4.14775 -9.63223,-9.33323 0,-5.22305 4.18631,-9.37327 9.669799,-9.37327 3.111611,0 5.889011,1.44648 7.555991,3.59304 l -3.40813,3.00037 c -0.961101,-1.25873 -2.40474,-2.14804 -4.147861,-2.14804 -2.77838,0 -4.852749,2.18758 -4.852749,4.9279 0,2.81536 2.03877,4.88983 4.965469,4.88983 1.961651,0 3.51701,-1.18742 4.295181,-2.371 l 3.70576,2.77828 z m 10.83031,-6.22409 9.89228,9.89238 -6.48414,0 -7.595431,-7.78232 0,7.78232 -4.81331,0 0,-25.93174 4.81331,0 0,13.78156 6.18562,-5.81819 6.78266,0 -8.78099,8.07599 z M 2.5e-6,31.70564 c 0,-1.73977 1.410888,-3.14868 3.149176,-3.14868 1.739275,0 3.148189,1.40891 3.148189,3.14868 0,1.73681 -1.408914,3.14858 -3.148189,3.14858 -1.738288,0 -3.149176,-1.41177 -3.149176,-3.14858 z"/>
  </g>
  <g class="target" id="video-icon">
    <path d="m 100,80.524023 -100,0 L 0,0 100,0 100,80.524023 Z M 4.3422949,76.18173 l 91.3154101,0 0,-71.8394354 -91.3154101,0 0,71.8394354 z" style="opacity:0.16; fill:#ffffff"/>
    <rect x="4.3423419" y="4.3422484" width="91.315407" height="71.839432" style="opacity:0.4;fill:#0c0d0d"/>
    <path d="m 80.545119,22.119768 -18.239339,9.532695 0,-4.517959 c 0,-3.421804 -2.773917,-6.195723 -6.195724,-6.195723 l -32.918111,0 c -3.42192,0 -6.195933,2.774015 -6.195933,6.195936 l 0,26.254555 c 0,3.42192 2.774013,6.195972 6.195933,6.195972 l 32.917902,0 c 3.421924,0 6.195933,-2.774052 6.195933,-6.195972 l 0,-4.517958 18.239339,9.532694 c 1.118853,0.584764 2.458867,-0.226881 2.458867,-1.489328 l 0,-33.305581 c 0,-1.26245 -1.340014,-2.074094 -2.458867,-1.489331 z" style="opacity:0.9;fill:#ffffff"/>
  </g>
  <g class="target" id="camera-icon">
    <path fill="#666E6E" d="M75 31h-6c-2.8 0-5.5-1.6-6-3.5S59.8 24 57 24H47c-2.7 0-5.5 1.6-6 3.5S37.8 31 35 31h-6c-2.7 0-5 2.2-5 5v25c0 2.8 2.2 5 5 5h46c2.8 0 5-2.2 5-5V36c0-2.8-2.3-5-5-5zm3 30c0 1.7-1.3 3-3 3H29c-1.7 0-3-1.3-3-3V36c0-1.7 1.3-3 3-3h6c3.7 0 7.1-2.2 7.9-5 .2-.8 2-2 4.1-2h10c2.1 0 3.8 1.2 4.1 2 .8 2.8 4.3 5 7.9 5h6c1.7 0 3 1.3 3 3v25zM52 35c-6.6 0-12 5.4-12 12s5.4 12 12 12 12-5.4 12-12-5.4-12-12-12zm0 22c-5.5 0-10-4.5-10-10s4.5-10 10-10 10 4.5 10 10-4.5 10-10 10z"/>
  </g>
  <g class="target" id="audio-icon">
    <path d="m 99.999999,80.524026 -99.99999902720782,0 0,-80.52402595738846 99.999995027207816,0 0,80.52402595738846 z m -95.6577039,-4.342297 91.3154079,0 0,-71.8394345 -91.3154079,0 0,71.8394345 z" style="opacity:0.16;fill:#ffffff"/>
    <rect x="4.3423176" y="4.3423886" width="91.315407" height="71.839432" style="opacity:0.4;fill:#0c0d0d"/>
    <path d="m 51.071971,14.172951 c -0.669988,-0.267989 -1.40698,-0.133994 -1.875957,0.401997 0,0 -12.997764,12.997766 -13.935745,13.935754 -1.339978,0 -15.945708,0 -15.945708,0 -0.937981,0 -1.741975,0.803984 -1.741975,1.741974 l 0,20.032641 c 0,0.93798 0.803994,1.741973 1.741975,1.741973 0,0 14.60573,0 15.945708,0 0.937981,0.937981 13.935745,13.935741 13.935745,13.935741 0.468995,0.469002 1.205969,0.669987 1.875957,0.402001 0.669988,-0.268003 1.071986,-0.870983 1.071986,-1.607968 l 0,-48.909131 c 0,-0.803994 -0.401998,-1.40698 -1.071986,-1.674982 z" style="opacity:0.9;fill:#ffffff"/>
    <path d="m 65.40971,22.9498 -3.751936,3.751937 c 2.679953,3.818929 4.220917,8.508846 4.220917,13.533759 0,5.024914 -1.54096,9.647823 -4.220917,13.533767 l 3.751936,3.751936 c 3.55093,-4.823921 5.694905,-10.786812 5.694905,-17.285692 0,-6.498905 -2.143954,-12.461796 -5.694905,-17.285707 z m 8.039857,-8.039856 -3.751936,3.751937 c 4.689917,5.962889 7.436872,13.466764 7.436872,21.573615 0,8.106852 -2.813959,15.610717 -7.436872,21.573625 l 3.751936,3.751936 c 5.627897,-6.967868 8.977839,-15.744722 8.977839,-25.32555 0,-9.580844 -3.416921,-18.424684 -8.977839,-25.325563 z" style="fill:#ffffff"/>
  </g>
  <g class="target" id="search-icon">
    <path style="fill:#6c6c6c" d="M 99.521532,95.53429 76.555021,72.56778 C 83.253588,64.91228 87.400316,54.70494 87.400316,43.859649 87.400316,20.574162 66.985647,0.1594895 43.700162,0.1594895 19.457736,0.1594895 1.2500001e-7,19.617225 1.2500001e-7,43.859649 1.2500001e-7,68.10207 19.457736,87.55981 43.700162,87.55981 c 11.164275,0 21.052629,-4.146729 29.027111,-11.16427 l 22.966505,22.966501 c 0.637962,0.637959 1.594898,0.637959 2.232855,0 l 1.594899,-1.59489 c 0.637958,-0.63796 0.637958,-1.5949 0,-2.23286 z M 43.700162,81.81818 c -21.052633,0 -38.2775139,-17.22488 -38.2775139,-37.958531 0,-21.052632 17.2248809,-38.2775115 38.2775139,-38.2775115 20.414672,0 38.277507,17.8628385 38.277507,38.2775115 C 81.65869,64.91228 64.752791,81.81818 43.700162,81.81818 Z"/>
  </g>
  <g class="target" id="checkmark-icon">
      <path style="fill:#02a388" d="M 99.999748,12.501065 C 79.166103,33.33325 58.332454,54.165435 37.498809,74.99762 24.999204,62.498015 12.499604,49.998415 0,37.49881 4.16702,33.33179 8.334044,29.164765 12.501064,24.997745 20.833644,33.33179 29.166229,41.66583 37.498809,49.999875 54.165434,33.33325 70.832059,16.666625 87.498684,0 c 4.16702,4.167021 8.334044,8.334045 12.501064,12.501065 z"/>
  </g>
  <g class="target" id="camera-icon-sbi" transform="translate(0, 10) scale(2.66)">
    <path class="st2" d="M18.7509766,25.6015625c-5.2304688,0-9.4853516-4.2548828-9.4853516-9.4853516  s4.2548828-9.4853516,9.4853516-9.4853516s9.4853516,4.2548828,9.4853516,9.4853516S23.9814453,25.6015625,18.7509766,25.6015625z   M18.7509766,8.1308594c-4.4033203,0-7.9853516,3.5820312-7.9853516,7.9853516s3.5820312,7.9853516,7.9853516,7.9853516  s7.9853516-3.5820312,7.9853516-7.9853516S23.1542969,8.1308594,18.7509766,8.1308594z"/>
    <path class="st2" d="M18.7509766,22.3300781c-3.4267578,0-6.2138672-2.7875977-6.2138672-6.2138672  s2.7871094-6.2133789,6.2138672-6.2133789s6.2138672,2.7871094,6.2138672,6.2133789S22.1777344,22.3300781,18.7509766,22.3300781z   M18.7509766,11.402832c-2.5996094,0-4.7138672,2.1142578-4.7138672,4.7133789s2.1142578,4.7138672,4.7138672,4.7138672  s4.7138672-2.1147461,4.7138672-4.7138672S21.3505859,11.402832,18.7509766,11.402832z"/>
    <path class="st2" d="M5.8242188,11.9975586c-1.3417969,0-2.4335938-1.0913086-2.4335938-2.4331055  s1.0917969-2.4335938,2.4335938-2.4335938s2.4335938,1.0917969,2.4335938,2.4335938S7.1660156,11.9975586,5.8242188,11.9975586z   M5.8242188,8.6308594c-0.5146484,0-0.9335938,0.4189453-0.9335938,0.9335938s0.4189453,0.9331055,0.9335938,0.9331055  s0.9335938-0.418457,0.9335938-0.9331055S6.3388672,8.6308594,5.8242188,8.6308594z"/>
    <path class="st2" d="M34.0058594,28.5664062H3.4960938c-1.8164062,0-3.2939453-1.4775391-3.2939453-3.293457V6.9594727  c0-1.815918,1.4775391-3.293457,3.2939453-3.293457h7.4345703l1.8408203-2.265625  c0.6269531-0.7739258,1.5595703-1.2177734,2.5556641-1.2177734h6.8466797c0.9970703,0,1.9296875,0.4438477,2.5566406,1.2177734  l1.8408203,2.265625h7.4345703c1.8154297,0,3.2929688,1.4775391,3.2929688,3.293457v18.3134766  C37.2988281,27.0888672,35.8212891,28.5664062,34.0058594,28.5664062z M3.4960938,5.1660156  c-0.9892578,0-1.7939453,0.8046875-1.7939453,1.793457v18.3134766c0,0.9887695,0.8046875,1.793457,1.7939453,1.793457h30.5097656  c0.9882812,0,1.7929688-0.8046875,1.7929688-1.793457V6.9594727c0-0.9887695-0.8046875-1.793457-1.7929688-1.793457h-7.7919922  c-0.2255859,0-0.4394531-0.1020508-0.5820312-0.2773438l-2.0654297-2.5429688  c-0.3417969-0.4213867-0.8496094-0.6630859-1.3925781-0.6630859h-6.8466797c-0.5419922,0-1.0498047,0.2416992-1.3916016,0.6630859  l-2.0654297,2.5429688c-0.1425781,0.175293-0.3564453,0.2773438-0.5820312,0.2773438H3.4960938z"/>
  </g>
  <g class="target" id="placeholder">
    <rect x="0" y="0" width="50" height="50" style="fill:#333;opacity:0.5;"/>
    <rect x="50" y="0" width="50" height="50" style="fill:#ccc;opacity:0.5;"/>
    <rect x="0" y="50" width="50" height="50" style="fill:#ccc;opacity:0.5;"/>
    <rect x="50" y="50" width="50" height="50" style="fill:#333;opacity:0.5;"/>
  </g>
  <g class="target" id="clear-icon">
    <path d="M 99.16201,92.458101 56.703911,50 99.16201,7.5418992 c 1.11732,-1.1173179 1.11732,-2.7932959 0,-3.910614 L 96.36872,0.83798925 c -1.11732,-1.117319 -2.7933,-1.117319 -3.91062,0 L 50,43.296089 8.1005593,0.83798925 c -1.117319,-1.117319 -2.793296,-1.117319 -3.910615,0 L 0.83798925,4.1899442 c -1.117319,1.117319 -1.117319,2.793296 0,3.910615 L 43.296089,50.558659 0.83798925,92.458101 c -1.117319,1.117318 -1.117319,2.793296 0,3.910614 l 2.79329595,2.793296 c 1.117318,1.117319 2.793296,1.117319 3.910614,0 L 50,56.703911 l 42.4581,42.4581 c 1.11732,1.117319 2.7933,1.117319 3.91062,0 l 2.79329,-2.793296 c 1.11732,-1.117318 1.11732,-2.793296 0,-3.910614 z" style="fill:#666e6e"/>
  </g>
  <g class="mono-target" id="hamburger-icon-mono">
    <g id="hamburger-icon">
      <rect x="0" y="20.652" width="100" height="6.522" fill="inherit"/>
      <rect x="0" y="46.74" width="100" height="6.522" fill="inherit"/>
      <rect x="0" y="72.826" width="100" height="6.522" fill="inherit"/>
    </g>
  </g>
  <g class="target" id="caron-colored">
    <path id="caron" d="M 50.087395,79.777162 2.5e-6,29.515003 9.4815075,20.222838 50.087395,60.828721 90.693268,20.222838 99.999997,29.515003 50.087395,79.777162 Z" style="fill: inherit"/>
  </g>
  <g class="mono-target" id="caron-mono">
    <path id="caron-mono" d="M 50.087395,79.777162 2.5e-6,29.515003 9.4815075,20.222838 50.087395,60.828721 90.693268,20.222838 99.999997,29.515003 50.087395,79.777162 Z"/>
  </g>
  <g class="mono-target" id="account-icon-mono">
    <g class="target" id="account-icon">
      <path d="m 48.650214,49.184528 2.624508,0 c 18.121602,0.518653 37.836655,7.423608 35.824533,24.895332 L 85.118376,90.376804 C 84.087319,98.712741 78.744571,99.950009 68.027831,100 l -36.118228,0 C 21.224106,99.950009 15.850114,98.712741 14.850301,90.376804 L 12.900667,74.07986 C 10.888544,56.608136 30.616095,49.709429 48.706453,49.190777 Z M 28.466498,21.783416 C 28.466498,9.773168 38.245915,0 50.256163,0 c 12.010248,0 21.783415,9.748172 21.783415,21.745923 0,11.99775 -9.773167,21.745922 -21.783415,21.745922 -12.010248,0 -21.783416,-9.773167 -21.783416,-21.783415 z" style="fill:inherit"/>
    </g>
  </g>
</svg>